<svg xmlns="http://www.w3.org/2000/svg" viewBox="0 0 400 300" width="406" height="306" class="illustration styles_illustrationTablet__1DWOa"><g id="_224_social_media_flatline" data-name="#224_social_media_flatline"><path d="M75.28,108a6.4,6.4,0,0,0,.36,3.37C77.11,116.05,88.06,134,87.78,120,87.7,115.85,76.77,101.84,75.28,108Z" fill="#fff"></path><path d="M86,125.75c-3.68,0-9.85-11.14-10.82-14.25a6.91,6.91,0,0,1-.37-3.65h0c.45-1.83,1.63-2,2.31-1.91,3.76.41,11.13,10.32,11.21,14.06s-.6,5.49-2.06,5.73ZM75.78,108.09a5.81,5.81,0,0,0,.36,3.1c1.23,4,7.51,13.9,9.94,13.52.38-.06,1.27-.65,1.19-4.69-.07-3.15-7.13-12.71-10.29-13-.42,0-.93,0-1.2,1.12Z" fill="#231f20"></path><path d="M197.47,150.56l-71.8,13.13s-23.27-33.53-24-32.9c-7.13,6-16.32,13.45-16.32,13.45s6.79,45.12,24.48,54.13,72.88-13.15,72.88-13.15Z" fill="#000000"></path><path d="M256.25,153.19,294,175.44l12-61.29,18.55,7s3.57,110.31-16.7,107.66S239,197.18,239,197.18Z" fill="#000000"></path><path d="M197.47,150.56s-24.5-1.29-42,43.44-29.59,73.56-29.59,73.56l111,11s13.39-50,19.18-87.11c2.93-18.8,3.92-34.29.22-38.3C245.25,141.25,197.47,150.56,197.47,150.56Z" fill="#000000"></path><path d="M239.89,267.34l-.15,0a.52.52,0,0,1-.35-.64l25.42-86.49a.52.52,0,0,1,.64-.35.51.51,0,0,1,.35.64L240.38,267A.51.51,0,0,1,239.89,267.34Z" fill="#231f20"></path><path d="M128.76,261a.39.39,0,0,1-.18,0,.52.52,0,0,1-.3-.67l35.52-90.51a.5.5,0,0,1,.67-.29.51.51,0,0,1,.29.66l-35.51,90.52A.53.53,0,0,1,128.76,261Z" fill="#231f20"></path><path d="M183.34,143.8c0-.61,0-1.2,0-1.77a16.88,16.88,0,0,1,.87-6.17,14.38,14.38,0,0,1,4.82-5.64,52.3,52.3,0,0,1,28.27-10.55,67.41,67.41,0,0,1,29.94,5,40.48,40.48,0,0,1,12,7A28,28,0,0,1,268,155.44c-.35,3-.49,7.87-1.71,10.66-2.14,4.86-8.46,4.69-12.73,6s-7.62,4.36-11.58,6.32c-3.57,1.78-8.41,1.38-12.34,1.68-9.6.74-20.08.39-28-5.08-5.41-3.73-6.35-10.68-9.38-16.05-1.72-3-4-3.89-6.23-6.07S183.35,147,183.34,143.8Z" fill="#000000"></path><path d="M206.86,181.65a10.87,10.87,0,0,0,6.62,7.27,11.88,11.88,0,0,0,9.27-1.3,24.83,24.83,0,0,0,7-6.44,54.17,54.17,0,0,0,6.92-11.28,21.67,21.67,0,0,0,2.28-8.24,9.62,9.62,0,0,0-3-7.64c-5.66-4.88-20.9-4.78-26.13,1.48C204.92,161.38,204.8,175.13,206.86,181.65Z" fill="#231f20"></path><path d="M216.44,189.89a10.08,10.08,0,0,1-3.12-.48,11.34,11.34,0,0,1-6.95-7.6h0c-2.1-6.63-1.94-20.64,3.07-26.65,2.31-2.75,6.68-4.58,12-5,6-.49,11.83.88,14.86,3.49a10.1,10.1,0,0,1,3.19,8,22.65,22.65,0,0,1-2.33,8.45,55,55,0,0,1-7,11.38,24.57,24.57,0,0,1-7.18,6.57A13.53,13.53,0,0,1,216.44,189.89Zm-9.09-8.39a10.36,10.36,0,0,0,6.29,6.93,11.38,11.38,0,0,0,8.85-1.26,23.67,23.67,0,0,0,6.89-6.31,54.22,54.22,0,0,0,6.85-11.17,21.43,21.43,0,0,0,2.24-8.05,9.07,9.07,0,0,0-2.84-7.23c-2.83-2.44-8.36-3.71-14.09-3.24-5.06.42-9.18,2.11-11.3,4.66-4.8,5.74-4.92,19.25-2.89,25.67Z" fill="#231f20"></path><path d="M255.1,133.3c2.71-4.56,5.77-9,7.86-13.8s3.14-10.27,1.65-15.16a8.75,8.75,0,0,0-3.4-5,5.38,5.38,0,0,0-6,.06,12.81,12.81,0,0,0-4.12-5.7,30.71,30.71,0,0,0-15.21-7.5,24.25,24.25,0,0,0-17,3.31c-2.06,1.34-3.9,3-6.08,4.14a13,13,0,0,1-11.84,0c-1.46,7.56,1.15,15.32,5.78,21.29s11.12,10.32,17.93,13.83a35.08,35.08,0,0,0,11.43,4,16.36,16.36,0,0,0,11.88-2.69" fill="#fff"></path><path d="M255.1,133.81a.48.48,0,0,1-.26-.07.51.51,0,0,1-.18-.71c.71-1.19,1.44-2.38,2.18-3.56a79.44,79.44,0,0,0,5.64-10.17c1.65-3.81,3.26-9.48,1.63-14.81a8.29,8.29,0,0,0-3.18-4.67,4.85,4.85,0,0,0-5.38,0,.54.54,0,0,1-.48.08.51.51,0,0,1-.33-.34,12.38,12.38,0,0,0-4-5.46,30,30,0,0,0-14.94-7.38A23.72,23.72,0,0,0,219.23,90c-.78.51-1.54,1.08-2.28,1.63a26.7,26.7,0,0,1-3.85,2.54,13.74,13.74,0,0,1-11.68.3c-1.08,6.71,1,14,5.8,20.2,4,5.16,9.64,9.51,17.75,13.69a34.72,34.72,0,0,0,11.27,4,15.84,15.84,0,0,0,11.5-2.59.52.52,0,0,1,.62.83,16.9,16.9,0,0,1-12.25,2.78,35.88,35.88,0,0,1-11.61-4.1c-8.25-4.25-14-8.7-18.09-14-5.13-6.6-7.28-14.52-5.89-21.7a.52.52,0,0,1,.29-.37.5.5,0,0,1,.46,0,12.56,12.56,0,0,0,11.36,0,25.23,25.23,0,0,0,3.7-2.45c.75-.56,1.53-1.14,2.34-1.66A24.7,24.7,0,0,1,236,85.73a31,31,0,0,1,15.46,7.63,14.15,14.15,0,0,1,4.06,5.29,6,6,0,0,1,6,.29,9.22,9.22,0,0,1,3.62,5.25c1.72,5.63,0,11.55-1.67,15.52a80,80,0,0,1-5.71,10.3c-.74,1.18-1.47,2.36-2.18,3.55A.5.5,0,0,1,255.1,133.81Z" fill="#231f20"></path><path d="M216.05,146.74l-6.7,12.9s-5.12,15.41,7.39,16S237,164.45,237,164.45l12.93-29.07s-7-6.95,1.78-24.59a61.07,61.07,0,0,1-31.46-4.43S208.19,124.77,206.56,134,216.05,146.74,216.05,146.74Z" fill="#fff"></path><path d="M217.56,176.12c-.28,0-.56,0-.85,0-3.31-.14-5.74-1.31-7.23-3.47-3.33-4.82-.73-12.82-.61-13.16L215.32,147c-2.31-.9-10.74-4.8-9.27-13.11,1.63-9.23,13.27-27.08,13.77-27.84a.51.51,0,0,1,.63-.19,61,61,0,0,0,31.17,4.4.5.5,0,0,1,.5.2.51.51,0,0,1,0,.54c-4.46,8.93-4.72,15-4.16,18.5A10.48,10.48,0,0,0,250.3,135a.52.52,0,0,1,.1.58l-12.93,29.07C237.35,164.85,229.72,176.12,217.56,176.12ZM220.45,107c-1.69,2.62-11.91,18.78-13.38,27.09-1.54,8.68,9,12.12,9.14,12.15a.56.56,0,0,1,.32.3.5.5,0,0,1,0,.43l-6.7,12.9s-2.52,7.78.52,12.18c1.3,1.88,3.46,2.9,6.43,3,12.1.55,19.73-10.79,19.81-10.91l12.76-28.69c-1.2-1.44-5.94-8.56,1.49-24A62.93,62.93,0,0,1,220.45,107Z" fill="#231f20"></path><path d="M229.18,120.9s-8.84,8.46-7.67,10.42,5.82,1.63,5.82,1.63" fill="#fff"></path><path d="M226.51,133.48c-1.49,0-4.42-.23-5.42-1.91-1.28-2.13,5.6-9,7.74-11a.5.5,0,0,1,.71,0,.5.5,0,0,1,0,.71c-4.13,3.95-8.15,8.84-7.58,9.8.84,1.39,4.15,1.48,5.35,1.39a.51.51,0,0,1,.53.47.49.49,0,0,1-.46.53C227.25,133.46,226.94,133.48,226.51,133.48Z" fill="#231f20"></path><ellipse cx="239.41" cy="120.2" rx="2.7" ry="1.18" transform="translate(75.09 331.77) rotate(-78.82)" fill="#231f20"></ellipse><ellipse cx="221.41" cy="116.93" rx="2.7" ry="1.18" transform="matrix(0.18, -0.98, 0.98, 0.18, 66.76, 313.85)" fill="#231f20"></ellipse><path d="M244.05,128.6a17.74,17.74,0,0,1,5.48-3.38,6,6,0,0,1,3.41-.47,4.75,4.75,0,0,1,2.3,1.45,9.1,9.1,0,0,1,2.42,7.41,7.65,7.65,0,0,1-1.32,3.54,9.27,9.27,0,0,1-5,3.3,26.69,26.69,0,0,1-6,.8" fill="#fff"></path><path d="M245.25,141.77a.52.52,0,0,1,0-1,26.44,26.44,0,0,0,5.93-.79,8.78,8.78,0,0,0,4.77-3.09,7.38,7.38,0,0,0,1.23-3.32,8.63,8.63,0,0,0-2.28-7,4.28,4.28,0,0,0-2.05-1.3,5.64,5.64,0,0,0-3.1.45A17.39,17.39,0,0,0,244.4,129a.52.52,0,0,1-.7-.76,18.51,18.51,0,0,1,5.65-3.48,6.49,6.49,0,0,1,3.7-.49,5.08,5.08,0,0,1,2.56,1.59,9.65,9.65,0,0,1,2.57,7.83,8.31,8.31,0,0,1-1.42,3.78,9.81,9.81,0,0,1-5.32,3.5,28.4,28.4,0,0,1-6.16.82Z" fill="#231f20"></path><path d="M216.05,146.74s10.65,3.42,17.67,1.35c0,0-11.3,11.89-24.37,11.55Z" fill="#231f20"></path><path d="M209.92,160.16h-.58a.5.5,0,0,1-.43-.25.52.52,0,0,1,0-.5l6.69-12.9a.53.53,0,0,1,.62-.26c.1,0,10.58,3.36,17.36,1.36a.51.51,0,0,1,.59.22.53.53,0,0,1-.07.63C233.63,148.93,222.81,160.16,209.92,160.16Zm6.39-12.8-6.11,11.76C220,159,228.78,151.94,232,149,225.84,150,218.19,147.92,216.31,147.36Z" fill="#231f20"></path><path d="M199,176.73a.51.51,0,0,1-.5-.41A58.17,58.17,0,0,0,185,151.52a.51.51,0,0,1,0-.73.53.53,0,0,1,.73,0A59.24,59.24,0,0,1,199.5,176.1a.51.51,0,0,1-.4.61Z" fill="#231f20"></path><path d="M233.38,185.73a.48.48,0,0,1-.32-.11.51.51,0,0,1-.08-.73,70.14,70.14,0,0,1,30.94-19.73.53.53,0,0,1,.65.34.51.51,0,0,1-.34.65,69.07,69.07,0,0,0-30.45,19.39A.5.5,0,0,1,233.38,185.73Z" fill="#231f20"></path><path d="M225.06,122.73a3.87,3.87,0,0,1-.48,0h0l-11.27-1.79a3,3,0,0,1-2.5-3.44l.77-4.82a3,3,0,0,1,3.43-2.49l11.27,1.78a3,3,0,0,1,2.5,3.44L228,120.2a3,3,0,0,1-2.95,2.53Zm-.32-1A2,2,0,0,0,227,120l.76-4.82a2,2,0,0,0-1.64-2.26l-11.27-1.78a1.9,1.9,0,0,0-1.46.35,1.92,1.92,0,0,0-.79,1.28l-.77,4.83a2,2,0,0,0,1.64,2.25Z" fill="#231f20"></path><path d="M245.15,125.92a2.59,2.59,0,0,1-.48,0h0l-11.27-1.79a3,3,0,0,1-2.49-3.43l.76-4.82a3,3,0,0,1,1.2-2,3,3,0,0,1,2.24-.54l11.27,1.79a3,3,0,0,1,2.49,3.43l-.76,4.83a3,3,0,0,1-1.2,2A3,3,0,0,1,245.15,125.92Zm-.32-1.06a2,2,0,0,0,1.47-.35,2,2,0,0,0,.79-1.29l.76-4.82a2,2,0,0,0-1.64-2.25l-11.27-1.79a2,2,0,0,0-2.25,1.64l-.77,4.82a2,2,0,0,0,1.64,2.25Z" fill="#231f20"></path><path d="M232.18,116.43a.47.47,0,0,1-.35-.14c-1.81-1.7-3.18-.64-3.24-.59a.51.51,0,0,1-.72-.08.5.5,0,0,1,.08-.72c.73-.59,2.62-1.21,4.58.64a.51.51,0,0,1-.35.89Z" fill="#231f20"></path><path d="M225.14,138.35a28.94,28.94,0,0,1-7.85-1.33,9.82,9.82,0,0,0-1.1-.29.52.52,0,0,1-.52-.21.51.51,0,0,1,.14-.7c.28-.19.57-.11,1.76.23,4,1.14,14.47,4.17,17.75-6a.49.49,0,0,1,.63-.32.49.49,0,0,1,.32.62C234.21,136.75,229.5,138.35,225.14,138.35Z" fill="#231f20"></path><path d="M77,39.33,94.36,253.61l221.51-17.92L298.53,21.4Zm218.53,155-187.82,15.2L98.37,93.72l187.82-15.2Z" fill="#fff"></path><path d="M94.36,254.11A.54.54,0,0,1,94,254a.51.51,0,0,1-.17-.35L76.53,39.37a.5.5,0,0,1,.46-.54l221.5-17.92a.5.5,0,0,1,.54.45l17.34,214.29a.5.5,0,0,1-.46.54L94.4,254.11ZM77.57,39.78l17.25,213.3,220.51-17.85L298.07,21.94ZM107.74,210a.47.47,0,0,1-.32-.12.5.5,0,0,1-.18-.34L97.87,93.76a.5.5,0,0,1,.46-.54L286.15,78a.52.52,0,0,1,.37.12.51.51,0,0,1,.17.34l9.37,115.81a.5.5,0,0,1-.46.54L107.78,210ZM98.91,94.18,108.2,209,295,193.88,285.74,79.06Z" fill="#231f20"></path><circle cx="104.51" cy="52.25" r="9.47" fill="#d1d3d4"></circle><path d="M98,68.26a.5.5,0,0,1,0-1L282.4,52.34a.5.5,0,1,1,.08,1L98.08,68.26Z" fill="#d1d3d4"></path><path d="M99,80.33a.5.5,0,0,1,0-1L244.65,67.54a.51.51,0,0,1,.54.46.5.5,0,0,1-.46.54L99.05,80.33Z" fill="#d1d3d4"></path><circle cx="120.67" cy="227.3" r="12.02" fill="#000000"></circle><circle cx="147.71" cy="225.11" r="12.02" fill="#000000"></circle><rect x="113.47" y="225.23" width="3.44" height="7.1" rx="0.73" transform="matrix(1, -0.08, 0.08, 1, -18.08, 10.04)" fill="#fff"></rect><path d="M118.5,226.17,119,232l8.32-.67s1.37-7,.24-7.41-4.44,0-4.44,0,1.24-4.84-.1-5S120.17,223.37,118.5,226.17Z" fill="#fff"></path><path d="M147.45,222l.17-.31a4.05,4.05,0,0,1,1.57-1.53,3.48,3.48,0,0,1,1.65-.41,3.42,3.42,0,0,1,3.38,2.67,5.48,5.48,0,0,1,.11,1.4,5.08,5.08,0,0,1-.17,1.34,5.41,5.41,0,0,1-1,1.9,19.12,19.12,0,0,1-1.46,1.65c-.88.91-1.77,1.82-2.65,2.74-.26.27-.5.55-.76.83l0,.05-.22-.17c-1-.8-2-1.56-3-2.31-.67-.49-1.35-1-2-1.52a7,7,0,0,1-1.24-1.31,4.91,4.91,0,0,1-.78-1.73,7.6,7.6,0,0,1-.2-1.41,3.39,3.39,0,0,1,2-3.29,3.51,3.51,0,0,1,3.84.6,4,4,0,0,1,.71.76Z" fill="#fff"></path><rect x="120.34" y="44.75" width="49.55" height="6.01" transform="translate(-3.38 11.86) rotate(-4.63)" fill="#d1d3d4"></rect><path d="M168.58,223.92a.5.5,0,0,1-.49-.46.49.49,0,0,1,.45-.54L204,220.05a.49.49,0,0,1,.53.46.5.5,0,0,1-.45.54l-35.47,2.87Z" fill="#d1d3d4"></path><path d="M321.06,121.12c2.5-1.65,5.15-23.58-2.32-28.62a184.33,184.33,0,0,1-15.43-12l.7,8.7s-7.8-2.76-8.9,1,.63,9.11,10.34,16.74l.58,7.24Z" fill="#fff"></path><path d="M321.06,121.64a.54.54,0,0,1-.22,0l-15-7a.53.53,0,0,1-.3-.43l-.57-7c-8.28-6.56-11.76-12.33-10.34-17.15a2.91,2.91,0,0,1,1.53-1.82c2.12-1.09,5.74-.22,7.3.24l-.65-7.94a.52.52,0,0,1,.86-.43,184,184,0,0,0,15.38,12c4.51,3.05,5.15,11.3,5.12,16,0,5.66-1.16,12.45-2.81,13.54A.57.57,0,0,1,321.06,121.64Zm-14.54-7.83,14.44,6.7c.91-1.14,2.13-6.23,2.16-12.5,0-7.55-1.66-13.05-4.67-15.08a176.21,176.21,0,0,1-14.52-11.25l.6,7.45a.53.53,0,0,1-.2.45.51.51,0,0,1-.49.08s-4.92-1.72-7.23-.54a1.91,1.91,0,0,0-1,1.2c-1.3,4.42,2.12,9.86,10.17,16.19a.5.5,0,0,1,.19.36Z" fill="#231f20"></path><path d="M84.22,118.82l-.26-.13c-7.63-3.53-6.77,10.15-6.06,14.16.79,4.36,3.17,14.86,9.68,10.43C94.69,138.44,91.42,122.49,84.22,118.82Z" fill="#fff"></path><path d="M84.63,144.86a3.84,3.84,0,0,1-1.53-.31c-2.6-1.09-4.52-5-5.7-11.61-.53-3-1.28-12,2.12-14.61,1.21-.94,2.78-1,4.65-.11l.28.14c4.06,2.07,7.17,8,7.57,14.32.32,5-1.2,9-4.15,11A5.76,5.76,0,0,1,84.63,144.86ZM81.7,118.63a2.42,2.42,0,0,0-1.55.52c-2.75,2.12-2.34,10.23-1.74,13.61C79.81,140.54,82,143,83.5,143.6c1.12.47,2.36.23,3.79-.75,2.64-1.8,4-5.48,3.7-10.11-.37-5.92-3.32-11.58-7-13.46h0l-.24-.12A5,5,0,0,0,81.7,118.63Z" fill="#231f20"></path><path d="M130.12,180.85a.52.52,0,0,1-.52-.48c-.36-5.13-4.37-16.4-4.41-16.51a.51.51,0,0,1,.31-.66.53.53,0,0,1,.66.31c.17.47,4.1,11.51,4.47,16.79a.51.51,0,0,1-.48.55Z" fill="#231f20"></path><polygon points="192.24 187.95 172.44 183.16 170.76 187.95 190.82 193.3 192.24 187.95" fill="#fff"></polygon><path d="M190.82,193.82l-.14,0-20.06-5.35a.52.52,0,0,1-.32-.26.49.49,0,0,1,0-.41L172,183a.52.52,0,0,1,.61-.33l19.79,4.79a.49.49,0,0,1,.32.24.45.45,0,0,1,.06.39l-1.42,5.35a.56.56,0,0,1-.24.32A.59.59,0,0,1,190.82,193.82Zm-19.39-6.22,19,5.07,1.16-4.34-18.83-4.55Z" fill="#231f20"></path><path d="M124.92,130.47a2,2,0,0,1-2-1.47l-3.37-11.42A2,2,0,0,1,121,115l4-1.18a2,2,0,0,1,2.54,1.38l3.37,11.42a2.05,2.05,0,0,1-1.38,2.54h0l-4,1.18A2,2,0,0,1,124.92,130.47Zm.63-15.7a1,1,0,0,0-.3,0l-4,1.18a1,1,0,0,0-.71,1.3l3.37,11.41a1,1,0,0,0,1.3.71l4-1.17a1,1,0,0,0,.62-.51,1,1,0,0,0,.09-.79l-3.37-11.42A1,1,0,0,0,125.55,114.77Zm3.8,14h0Z" fill="#d1d3d4"></path><path d="M134.46,127.72a.5.5,0,0,1-.24-.06.48.48,0,0,1-.24-.3l-3.52-11.94a.44.44,0,0,1,0-.3c.73-2.13,1.33-4.68,1.92-7.14,1.33-5.59,2.38-10,4.66-10.15a1.67,1.67,0,0,1,1.28.5C140,100,140,105.85,140,108c1.78-.56,6.58-2,8.72-1.68.69.09,2.95,1.52,3.15,15.91a.49.49,0,0,1-.36.48l-16.91,5Zm-3-12.43,3.34,11.31,16.06-4.74c-.12-7-1.05-14.38-2.27-14.55-2.36-.32-8.89,1.83-9,1.86a.51.51,0,0,1-.66-.5c.1-2.21.05-8.25-1.35-9.62a.61.61,0,0,0-.5-.22c-1.55.1-2.72,5-3.76,9.38C132.79,110.64,132.19,113.15,131.46,115.29Z" fill="#d1d3d4"></path><path d="M167.11,139.6a18.14,18.14,0,0,1-3.56-.34,14,14,0,0,1-9.67-6.67.5.5,0,1,1,.88-.48,13,13,0,0,0,9,6.17A21.46,21.46,0,0,0,175,137.15a.5.5,0,0,1,.33.95A25.1,25.1,0,0,1,167.11,139.6Z" fill="#d1d3d4"></path></g></svg>