<svg xmlns="http://www.w3.org/2000/svg" viewBox="0 0 400 300" width="406" height="306" class="illustration styles_illustrationTablet__1DWOa"><g id="_225_social_media_flatline" data-name="#225_social_media_flatline"><path d="M65.28,45.28l22,139.24H193.89l-22-139.24Z" fill="#fff"></path><path d="M193.89,185H87.25a.5.5,0,0,1-.49-.42l-22-139.25a.52.52,0,0,1,.11-.4.52.52,0,0,1,.38-.17H171.92a.5.5,0,0,1,.49.42l22,139.24a.5.5,0,0,1-.49.58ZM87.68,184H193.3L171.49,45.78H65.87Z" fill="#231f20"></path><path d="M99.87,154.62a.43.43,0,0,1-.29-.1l-.2-.16c-.92-.75-1.88-1.49-2.79-2.18l-.13-.1c-.57-.43-1.15-.88-1.71-1.36a9.14,9.14,0,0,1-1.24-1.29,5.82,5.82,0,0,1-.87-1.7,7,7,0,0,1-.28-1.31,2.89,2.89,0,0,1,1.88-3.21,3.79,3.79,0,0,1,3.86.87,3.65,3.65,0,0,1,.3.27,3.26,3.26,0,0,1,1.26-1,3.21,3.21,0,0,1,1.66-.28,4,4,0,0,1,2.35,1,4.08,4.08,0,0,1,1.21,1.87,5.75,5.75,0,0,1,.21,1.31,5.36,5.36,0,0,1-.07,1.28,4.41,4.41,0,0,1-.8,1.76,14.7,14.7,0,0,1-1.2,1.37l-2.13,2.17-.4.43-.19.21A.59.59,0,0,1,99.87,154.62ZM95.44,144a2.52,2.52,0,0,0-.88.16,1.89,1.89,0,0,0-1.21,2.14,6.16,6.16,0,0,0,.25,1.14,4.81,4.81,0,0,0,.71,1.39,7.61,7.61,0,0,0,1.1,1.13c.53.46,1.1.9,1.66,1.32l.13.1c.86.66,1.77,1.35,2.64,2.07l.34-.36,2.12-2.17a11.92,11.92,0,0,0,1.11-1.26,3.41,3.41,0,0,0,.63-1.36,4.26,4.26,0,0,0,0-1,5.08,5.08,0,0,0-.17-1.09,3,3,0,0,0-.91-1.41,2.92,2.92,0,0,0-1.77-.76,2.13,2.13,0,0,0-1.16.19,2.28,2.28,0,0,0-1,1l-.12.24a.49.49,0,0,1-.83.08l.38-.31-.4.29a4.48,4.48,0,0,0-.62-.66A3.15,3.15,0,0,0,95.44,144Z" fill="#d1d3d4"></path><path d="M120.37,154.59a.44.44,0,0,1-.24-.07L118,153.36a6.52,6.52,0,0,1-2.18.37c-3.36,0-6.46-2.36-6.92-5.26a4.38,4.38,0,0,1,1-3.57,5.71,5.71,0,0,1,4.39-1.85c3.36,0,6.46,2.36,6.92,5.26a4.4,4.4,0,0,1-.74,3.24l.39,2.46a.5.5,0,0,1-.21.49A.52.52,0,0,1,120.37,154.59Zm-2.32-2.28a.5.5,0,0,1,.24.06l1.43.79-.26-1.66a.46.46,0,0,1,.1-.39,3.36,3.36,0,0,0,.67-2.64c-.39-2.44-3-4.42-5.93-4.42a4.71,4.71,0,0,0-3.63,1.5,3.34,3.34,0,0,0-.77,2.76c.39,2.44,3,4.42,5.93,4.42a5.43,5.43,0,0,0,2-.38A.43.43,0,0,1,118.05,152.31Z" fill="#d1d3d4"></path><path d="M131.5,154h0a.5.5,0,0,1-.46-.34l-1.44-4.21-5.06-2.43a.49.49,0,0,1-.29-.5.51.51,0,0,1,.38-.43L135,143.61a.5.5,0,0,1,.49.16.5.5,0,0,1,.09.51L132,153.72A.51.51,0,0,1,131.5,154Zm-5.28-7.27,4,1.91a.45.45,0,0,1,.25.29l1.06,3.09,2.76-7.25Z" fill="#d1d3d4"></path><path d="M130,149.63a.5.5,0,0,1-.35-.86l5.09-5a.51.51,0,0,1,.71.72l-5.1,5A.49.49,0,0,1,130,149.63Z" fill="#d1d3d4"></path><path d="M181.34,161.87H95.22a.5.5,0,0,1-.5-.5.5.5,0,0,1,.5-.5h86.12a.5.5,0,0,1,.5.5A.5.5,0,0,1,181.34,161.87Z" fill="#d1d3d4"></path><path d="M169.72,169.71H96.46a.5.5,0,0,1,0-1h73.26a.5.5,0,0,1,0,1Z" fill="#d1d3d4"></path><polygon points="177.65 138 88.8 138 75.78 55.49 164.63 55.49 177.65 138" fill="#fff"></polygon><path d="M177.65,138.5H88.8a.49.49,0,0,1-.49-.42l-13-82.51a.47.47,0,0,1,.11-.41.5.5,0,0,1,.38-.17h88.85a.51.51,0,0,1,.5.42l13,82.51a.5.5,0,0,1-.12.41A.49.49,0,0,1,177.65,138.5Zm-88.42-1h87.84L164.21,56H76.37Z" fill="#231f20"></path><path d="M124,79.74c.21-.41.39-.8.6-1.17a12.68,12.68,0,0,1,12.58-6.8,16.26,16.26,0,0,1,9.7,4.17,16.58,16.58,0,0,1,5,7.73,24.8,24.8,0,0,1,.9,5.67,21,21,0,0,1-.3,5.39,18.29,18.29,0,0,1-3.35,7.37,58,58,0,0,1-5.44,6.17c-3.34,3.42-6.68,6.82-10,10.24-1,1-1.9,2.07-2.85,3.1l-.17.19-.95-.77c-4.31-3.55-8.74-7-13.17-10.33-2.9-2.2-5.81-4.39-8.57-6.78a37.52,37.52,0,0,1-5.49-5.71,23.87,23.87,0,0,1-3.74-7.28,31,31,0,0,1-1.25-5.77c-.68-5.88,2.17-10.83,7.28-12.61,5.52-1.92,10.86-.57,15.93,3.66a21.24,21.24,0,0,1,3.13,3.3Z" fill="#000000"></path><path d="M298.12,219.38l10.34,15.1s.65,8,2.78,8.2,1.32-6.73,1.32-6.73,21.65,11,22.15,5.75-14.77-13.95-14.93-14.44-8.86-13-8.86-13Z" fill="#fff"></path><path d="M332.38,243.6c-5.1,0-15.93-5.16-19.24-6.79.12,1.62.22,4.84-.83,5.94a1.37,1.37,0,0,1-1.1.43c-2.33-.18-3.06-6.4-3.24-8.53l-10.26-15a.5.5,0,0,1,.22-.75l12.8-5.09a.52.52,0,0,1,.6.18c2.5,3.59,8.18,11.76,8.86,13,.16.15.88.63,1.64,1.14,6.82,4.54,13.74,9.71,13.37,13.63a1.83,1.83,0,0,1-1,1.5A3.93,3.93,0,0,1,332.38,243.6Zm-19.82-8.14a.44.44,0,0,1,.22,0c4.84,2.45,18,8.47,21,6.85a.83.83,0,0,0,.46-.71c.36-3.86-9.3-10.29-12.93-12.71-1.78-1.19-1.89-1.27-2-1.52-.25-.52-5.18-7.65-8.57-12.51l-11.85,4.71,10,14.58a.41.41,0,0,1,.08.24c.3,3.66,1.28,7.66,2.33,7.74a.35.35,0,0,0,.31-.12c.77-.81.7-4.14.47-6.05a.49.49,0,0,1,.21-.46A.52.52,0,0,1,312.56,235.46Z" fill="#231f20"></path><path d="M266.15,128.87c3,1,49.52,87.56,49.52,87.56l-16.07,7.88s-50.45-48-52.42-63.26S266.15,128.87,266.15,128.87Z" fill="#000000"></path><path d="M160.14,117.49l-9.39-12.56s-1.93-11.44-3.22-13.82-12.66-11.33-13.09-10,2.19,3.9,2.89,4.77c1.06,1.32,2.18,2.57,3.28,3.85-2.9.53-6.22,3-8,5.35a7.42,7.42,0,0,0-1,7.31A3.25,3.25,0,0,0,133,104a1.7,1.7,0,0,0,2-.29l.13.25a23.58,23.58,0,0,0,3.77,5.83c1.28,1.33,3.11,1.83,4.07,3.33,1.39,2.17,2.29,4.9,3.38,7.23l6.1,13.07Z" fill="#fff"></path><path d="M152.47,133.93h0a.48.48,0,0,1-.45-.29l-6.1-13.06c-.37-.78-.71-1.6-1-2.43a31.64,31.64,0,0,0-2.3-4.75,6.55,6.55,0,0,0-2.07-1.78,10.23,10.23,0,0,1-1.94-1.47,23.57,23.57,0,0,1-3.72-5.67,2.28,2.28,0,0,1-2,0,3.64,3.64,0,0,1-1.63-1.82,7.85,7.85,0,0,1,1.07-7.81,15.55,15.55,0,0,1,7.43-5.35c-.15-.18-.3-.36-.46-.53-.76-.88-1.54-1.79-2.29-2.71-.11-.15-.29-.35-.49-.58C135,84,133.57,82.24,134,81a.71.71,0,0,1,.63-.48c1.91-.15,12.13,8,13.38,10.36s3,12.57,3.25,13.86l9.32,12.46a.51.51,0,0,1,.05.52l-7.67,15.94A.5.5,0,0,1,152.47,133.93ZM135,103.22h.06a.5.5,0,0,1,.39.27l.12.25a23,23,0,0,0,3.69,5.71,9.15,9.15,0,0,0,1.76,1.33,7.23,7.23,0,0,1,2.37,2.08,31.38,31.38,0,0,1,2.38,4.91c.34.81.67,1.62,1,2.38l5.66,12.11,7.08-14.71-9.21-12.32a.4.4,0,0,1-.09-.21c0-.12-1.93-11.4-3.17-13.67s-10.32-9.24-12.19-9.81c.07.92,1.61,2.67,2.3,3.45l.52.61c.74.91,1.52,1.81,2.27,2.68l1,1.16a.51.51,0,0,1,.09.49.5.5,0,0,1-.38.32c-2.88.53-6.08,3-7.64,5.16a6.84,6.84,0,0,0-1,6.8,2.69,2.69,0,0,0,1.16,1.35,1.2,1.2,0,0,0,1.38-.17A.52.52,0,0,1,135,103.22Z" fill="#231f20"></path><path d="M137.54,217.57c-.28.57-22.93,27.9-22.93,27.9s-35.31,5.17-35.69.74,22.85-10.89,22.85-10.89l16.89-28.62Z" fill="#fff"></path><path d="M87,248.51c-3.84,0-6.86-.33-8-1.23a1.4,1.4,0,0,1-.6-1c-.07-.78-.27-3.14,11.6-7.62,5.13-1.93,10.35-3.44,11.41-3.74l16.79-28.45a.51.51,0,0,1,.68-.18l18.88,10.88a.5.5,0,0,1,.2.66c-.29.58-17.67,21.57-23,28a.55.55,0,0,1-.31.18C112.36,246.31,96.94,248.51,87,248.51Zm31.83-41.13L102.2,235.57a.51.51,0,0,1-.29.23c-8.83,2.45-22.74,7.44-22.49,10.37a.52.52,0,0,0,.23.33c3.1,2.46,25.91-.22,34.7-1.5,5.85-7.06,20.14-24.34,22.46-27.28Z" fill="#231f20"></path><path d="M223.54,189.82s-67.64-31.33-74.08-28.76S109.65,214,109.65,214l23.42,11s22.65-26.63,27-25.77S201,231,201,231,225.07,207.42,223.54,189.82Z" fill="#231f20"></path><path d="M201,231.53a.52.52,0,0,1-.33-.12c-10.13-8.57-37.2-31-40.69-31.65-3-.55-17.88,15.4-26.56,25.61a.52.52,0,0,1-.6.13l-23.41-11.06a.51.51,0,0,1-.27-.32.49.49,0,0,1,.06-.41c1.37-2.06,33.54-50.51,40.05-53.11,1-.42,4.22-1.69,39.83,13.42,17.52,7.42,34.47,15.27,34.64,15.35a.47.47,0,0,1,.29.41c.65,7.42-3,16.69-10.77,27.54a121.91,121.91,0,0,1-11.89,14.07A.54.54,0,0,1,201,231.53Zm-41.2-32.8a1.57,1.57,0,0,1,.37.05c4.28.83,36.81,28.2,40.8,31.57,2.82-2.86,23.2-24.16,22.07-40.2-19-8.77-68.33-30.66-73.42-28.62-4.93,2-27.65,34.75-39.26,52.25l22.54,10.65c1.17-1.36,6.23-7.22,11.65-12.94C155.61,199.85,158.72,198.73,159.83,198.73Z" fill="#231f20"></path><path d="M278.82,197.26s3.53,24.34-8.92,42.8-113.57,18.88-125.59,4.71,3.44-32,37.78-35.63,32.42-10.77,32.42-10.77Z" fill="#231f20"></path><path d="M200.55,255.21c-25.63,0-50.87-3.34-56.62-10.12-4.16-4.9-5.23-10.32-3.09-15.66,4.22-10.57,20-18.53,41.2-20.79,23.57-2.5,29.84-6.6,31.47-8.81a1.94,1.94,0,0,0,.52-1.35.51.51,0,0,1,.47-.61l64.31-1.11a.54.54,0,0,1,.5.43c0,.25,3.42,24.74-9,43.15-5,7.46-25.2,12.86-54,14.44C211.18,255.07,205.86,255.21,200.55,255.21ZM215,198.86a3.34,3.34,0,0,1-.59,1.42c-1.64,2.39-8,6.78-32.28,9.36-20.81,2.21-36.29,9.94-40.38,20.16-2,5-1,10,2.93,14.65,5.3,6.24,33.53,11.44,71.6,9.33,28.45-1.57,48.34-6.8,53.2-14,11.28-16.74,9.28-38.66,8.89-42Z" fill="#231f20"></path><path d="M278.82,197.26s-8.48-68.19-18.25-81.95-33.74-16-44.84-7.11-1.22,90.17-1.22,90.17S245.73,208.34,278.82,197.26Z" fill="#000000"></path><path d="M215.73,108.2s-10.89,2.58-16.22,12.42-11,23.28-11,23.28L159.34,113l-13.68,13.74s25,45.17,38.53,51.94c12.74,6.39,21.48-4.56,27.59-11.64,2.58-3,6.38-10.18,6.38-10.18Z" fill="#000000"></path><path d="M211.25,79.54A4.76,4.76,0,1,1,216,74.79,4.75,4.75,0,0,1,211.25,79.54Zm0-8.51A3.76,3.76,0,1,0,215,74.79,3.76,3.76,0,0,0,211.25,71Z" fill="#231f20"></path><path d="M213.29,78.09s-4.95,8.16-3.8,9.76,4.72.38,4.72.38" fill="#fff"></path><path d="M211.63,89.19a3,3,0,0,1-2.55-1c-1.24-1.74,2.58-8.33,3.78-10.31a.5.5,0,0,1,.86.52c-2.3,3.79-4.42,8.38-3.82,9.21.76,1.07,3.25.5,4.15.19a.5.5,0,0,1,.33,1A9.21,9.21,0,0,1,211.63,89.19Z" fill="#231f20"></path><path d="M214,67.54c-3.25,2.86-2,8.6-1.88,12.35q.38,7.92,1.1,15.81c.31,3.34,9,3.08,10.47,2l-1.84,8.36,18.93-2.77-1.17-10.9s1.22-15.19-2.43-21.88a11.79,11.79,0,0,0-10.85-6.07S217.17,64.75,214,67.54Z" fill="#fff"></path><path d="M221.86,106.58a.46.46,0,0,1-.36-.16.48.48,0,0,1-.12-.44L223,98.55a14.58,14.58,0,0,1-8.32-.47,2.88,2.88,0,0,1-2-2.33c-.48-5.24-.85-10.57-1.1-15.84,0-.63-.09-1.31-.15-2-.3-3.64-.69-8.17,2.19-10.71,3.26-2.88,12.27-3.2,12.65-3.21.05,0,7.54-.56,11.3,6.33s2.55,21.53,2.5,22.16l1.17,10.81a.5.5,0,0,1-.43.54l-18.92,2.78Zm1.84-9.36a.46.46,0,0,1,.27.09.49.49,0,0,1,.22.52l-1.68,7.65,17.73-2.6-1.11-10.42c0-.24,1.15-15.21-2.38-21.69A11.2,11.2,0,0,0,226.38,65c-.12,0-9,.32-12,3h0c-2.51,2.21-2.15,6.46-1.86,9.88.06.73.12,1.43.15,2.07.24,5.25.61,10.56,1.1,15.79.05.61.51,1.12,1.37,1.51,2.52,1.16,7.35.83,8.31.14A.5.5,0,0,1,223.7,97.22ZM214,67.54h0Z" fill="#231f20"></path><path d="M244.5,105.88l-1.77-5.78-23.24,2.25-1.33,5.3S230.3,113.42,244.5,105.88Z" fill="#fff"></path><path d="M229.28,110.24A28.87,28.87,0,0,1,218,108.1a.49.49,0,0,1-.27-.57l1.33-5.3a.49.49,0,0,1,.44-.37l23.23-2.25a.49.49,0,0,1,.52.35l1.78,5.77a.5.5,0,0,1-.24.59A32.71,32.71,0,0,1,229.28,110.24Zm-10.53-2.88a30.91,30.91,0,0,0,25.15-1.73l-1.53-5-22.48,2.18Z" fill="#231f20"></path><path d="M279.28,189.37h0a.5.5,0,0,1-.5-.5c0-17.6-9.31-52-10.09-54.38a.5.5,0,0,1,.31-.63.5.5,0,0,1,.64.31c.78,2.37,10.16,37,10.14,54.7A.5.5,0,0,1,279.28,189.37Z" fill="#231f20"></path><path d="M229.79,93.58c0,.13,0,.27,0,.4a52,52,0,0,0,4.68,22.17,28.72,28.72,0,0,0,8,11,27.12,27.12,0,0,0,12.58,5,22.69,22.69,0,0,0,11.63-.84c6.08-2.38,10.13-8.63,11-15.1s-1.2-13.07-4.52-18.69c-3.51-6-8.78-10.47-12.35-16.32-3.87-6.34-6.13-13.77-10.47-19.79-6.89-9.56-21.35-13-32.12-7.63-2.35-2.3-6.83-.44-8.06,2.61a10.81,10.81,0,0,0,.6,8.47c.19.32,3.49,3.85,3.33,2.74.43,3,2.37,4.37,4.74,6.25a86.52,86.52,0,0,0,7.67,4.87C233,82.76,230,87.31,229.79,93.58Z" fill="#fff"></path><path d="M259.76,133a32.32,32.32,0,0,1-4.74-.38,27.21,27.21,0,0,1-12.82-5.06c-3.23-2.52-5.92-6.17-8.2-11.15A52.54,52.54,0,0,1,229.28,94v-.42a37.7,37.7,0,0,1,.47-4.34c.63-4.19,1.09-7.21-3.53-10.15-.86-.55-1.74-1.06-2.61-1.58a42,42,0,0,1-5.1-3.32l-.32-.25c-2.09-1.66-3.92-3.1-4.51-5.76-1.21-.48-3.34-3.08-3.36-3.12a11.3,11.3,0,0,1-.63-8.91,6.75,6.75,0,0,1,4.74-3.83,4.49,4.49,0,0,1,3.86.81c11-5.27,25.47-1.75,32.45,7.93a68,68,0,0,1,6.06,11.16,85.19,85.19,0,0,0,4.43,8.67,65.08,65.08,0,0,0,6,7.86,63,63,0,0,1,6.37,8.46c2.64,4.46,5.57,11.37,4.59,19-.92,7.09-5.34,13.18-11.28,15.51A19.3,19.3,0,0,1,259.76,133ZM214.1,67.05a.47.47,0,0,1,.48.41c.39,2.63,2.09,4,4.24,5.68l.32.25a42.9,42.9,0,0,0,5,3.24c.89.52,1.78,1,2.65,1.6,5.16,3.29,4.62,6.92,4,11.14a36.27,36.27,0,0,0-.46,4.23h0V94a51.5,51.5,0,0,0,4.63,22c2.21,4.84,4.8,8.37,7.91,10.78a26.23,26.23,0,0,0,12.35,4.86c4.52.69,8.24.43,11.37-.8,5.6-2.2,9.78-8,10.64-14.71.95-7.35-1.89-14-4.45-18.37a62,62,0,0,0-6.27-8.32,65.8,65.8,0,0,1-6.08-8,88.44,88.44,0,0,1-4.48-8.78,66.57,66.57,0,0,0-6-11c-6.78-9.4-20.9-12.75-31.5-7.47a.5.5,0,0,1-.57-.09,3.44,3.44,0,0,0-3.23-.79,5.69,5.69,0,0,0-4,3.23,10.33,10.33,0,0,0,.56,8,20.41,20.41,0,0,0,2.64,2.6.5.5,0,0,1,.2-.08Zm15.69,26.53h0Z" fill="#231f20"></path><path d="M213.2,91.76s4.19,2.36,6.21-2" fill="#fff"></path><path d="M215.72,92.91A6.1,6.1,0,0,1,213,92.2a.5.5,0,0,1,.49-.87,4.71,4.71,0,0,0,3.32.42A3.77,3.77,0,0,0,219,89.6a.49.49,0,0,1,.66-.25.5.5,0,0,1,.24.67,4.66,4.66,0,0,1-2.79,2.68A4.31,4.31,0,0,1,215.72,92.91Z" fill="#231f20"></path><path d="M235.05,81a.5.5,0,0,1-.48-.37,8.64,8.64,0,0,0-.8-2c-1.92-.22-24.21-3-26.83-3.3a.5.5,0,0,1-.44-.55.49.49,0,0,1,.56-.44c9.11,1.13,26.46,3.27,26.91,3.31.26,0,.79.05,1.56,2.72a.51.51,0,0,1-.35.62Zm-1.15-2.37h0Zm0,0h0Z" fill="#231f20"></path><path d="M223.54,81.09a7.21,7.21,0,0,1,1.34-3.68,10.38,10.38,0,0,1,1.82-2.47,3.49,3.49,0,0,1,2.82-1,3.21,3.21,0,0,1,2.13,1.56,6,6,0,0,1,.76,2.59,11.32,11.32,0,0,1-4.84,10.25l.28-.32" fill="#fff"></path><path d="M227.57,88.86a.49.49,0,0,1-.37-.16.5.5,0,0,1,0-.66l.28-.33a.52.52,0,0,1,.38-.17h0a10.91,10.91,0,0,0,4-9.38,5.49,5.49,0,0,0-.69-2.38,2.72,2.72,0,0,0-1.79-1.33,3,3,0,0,0-2.39.86,9.92,9.92,0,0,0-1.73,2.35A7.05,7.05,0,0,0,224,81.08a.5.5,0,0,1-.48.51.52.52,0,0,1-.52-.49,7.73,7.73,0,0,1,1.41-3.95,10.56,10.56,0,0,1,1.92-2.58,3.92,3.92,0,0,1,3.23-1.1,3.68,3.68,0,0,1,2.48,1.79,6.51,6.51,0,0,1,.83,2.8,11.91,11.91,0,0,1-5.06,10.72A.54.54,0,0,1,227.57,88.86Z" fill="#231f20"></path><ellipse cx="214.68" cy="73.92" rx="1.89" ry="0.74" transform="translate(137.39 287.42) rotate(-89.1)" fill="#231f20"></ellipse><path d="M201,177.29a.5.5,0,0,1-.44-.26.51.51,0,0,1,.19-.68c19.37-11.07,26.66-47.22,26.73-47.58a.5.5,0,0,1,1,.19c-.07.37-7.45,37-27.21,48.26A.47.47,0,0,1,201,177.29Z" fill="#231f20"></path><path d="M175.44,210.56a.49.49,0,0,1-.48-.38.5.5,0,0,1,.37-.61C186,207,212.84,202.05,213.11,202a.49.49,0,0,1,.58.4.48.48,0,0,1-.4.58c-.27.05-27.07,5-37.73,7.57Z" fill="#fff"></path></g></svg>