<svg xmlns="http://www.w3.org/2000/svg" viewBox="0 0 400 300" width="406" height="306" class="illustration styles_illustrationTablet__1DWOa"><g id="_109_report_analysis" data-name="#109_report_analysis"><rect x="152.25" y="219.35" width="85.66" height="40.37" fill="#231f20"></rect><path d="M237.91,260.21H152.25a.5.5,0,0,1-.5-.5V219.35a.5.5,0,0,1,.5-.5h85.66a.5.5,0,0,1,.5.5v40.36A.5.5,0,0,1,237.91,260.21Zm-85.16-1h84.66V219.85H152.75Z" fill="#231f20"></path><path d="M317.79,177.75H292.47a.5.5,0,0,1-.5-.5v-4.91a.5.5,0,0,1,.5-.5h25.32a.5.5,0,0,1,.5.5v4.91A.5.5,0,0,1,317.79,177.75Zm-24.82-1h24.32v-3.91H293Z" fill="#d1d3d4"></path><path d="M313.52,207.23H296.73a.49.49,0,0,1-.49-.46l-1.95-29.49a.53.53,0,0,1,.14-.38.48.48,0,0,1,.36-.15h20.68a.48.48,0,0,1,.36.15.53.53,0,0,1,.14.38l-2,29.49A.49.49,0,0,1,313.52,207.23Zm-16.32-1h15.86l1.87-28.48h-19.6Z" fill="#d1d3d4"></path><rect x="124.74" y="206.87" width="206.22" height="12.48" rx="3.96" fill="#fff"></rect><path d="M327,219.85H128.71a4.47,4.47,0,0,1-4.47-4.46v-4.56a4.47,4.47,0,0,1,4.47-4.46H327a4.46,4.46,0,0,1,4.46,4.46v4.56A4.46,4.46,0,0,1,327,219.85ZM128.71,207.37a3.47,3.47,0,0,0-3.47,3.46v4.56a3.47,3.47,0,0,0,3.47,3.46H327a3.46,3.46,0,0,0,3.46-3.46v-4.56a3.46,3.46,0,0,0-3.46-3.46Z" fill="#231f20"></path><rect x="229.8" y="206.87" width="101.17" height="12.48" rx="2.78" fill="#fff"></rect><path d="M328.19,219.85H232.57a3.28,3.28,0,0,1-3.28-3.28v-6.93a3.27,3.27,0,0,1,3.28-3.27h95.62a3.27,3.27,0,0,1,3.27,3.27v6.93A3.28,3.28,0,0,1,328.19,219.85Zm-95.62-12.48a2.28,2.28,0,0,0-2.28,2.27v6.93a2.29,2.29,0,0,0,2.28,2.28h95.62a2.28,2.28,0,0,0,2.27-2.28v-6.93a2.27,2.27,0,0,0-2.27-2.27Z" fill="#231f20"></path><path d="M241,154.62s3.45,35.34-4.19,40.14c-7.09,4.43-14.95,3.14-19.32,3.14a7.57,7.57,0,0,0-7.49,5l-1.16,3.84h54.6a33.32,33.32,0,0,0,10.12-10.46c3.66-6.46,1.4-40,1.4-40Z" fill="#fff"></path><path d="M263.48,207.23h-54.6a.48.48,0,0,1-.4-.2.46.46,0,0,1-.08-.44l1.16-3.84a8.1,8.1,0,0,1,8-5.35c.73,0,1.57,0,2.48.08,4.55.2,10.8.47,16.57-3.15,3-1.86,4.61-9.27,4.73-21.43.09-9.3-.76-18.14-.77-18.23a.51.51,0,0,1,.14-.39.49.49,0,0,1,.39-.16L275,155.78a.51.51,0,0,1,.48.46c.09,1.38,2.23,33.76-1.46,40.27a33.77,33.77,0,0,1-10.29,10.65A.5.5,0,0,1,263.48,207.23Zm-53.93-1h53.78A32.89,32.89,0,0,0,273.17,196c3.32-5.85,1.61-35.28,1.36-39.27l-32.94-1.6c.43,4.77,2.89,35.42-4.48,40-6,3.78-12.72,3.49-17.15,3.3-.89,0-1.71-.08-2.43-.08a7.09,7.09,0,0,0-7,4.64Z" fill="#231f20"></path><path d="M272.38,188.24c0,8.73-2.62,11.34-6.11,11.34h-13.7a4.6,4.6,0,0,0-4.32,3l-1.52,4.13h21.11c5.41,0,9.25-8.19,9.42-16.92s0-33.53,0-33.53h-4.71S272.38,179.52,272.38,188.24Z" fill="#231f20"></path><path d="M267.84,207.23H246.73a.52.52,0,0,1-.41-.21.53.53,0,0,1-.06-.46l1.52-4.13a5.11,5.11,0,0,1,4.79-3.35h13.7c3.77,0,5.61-3.54,5.61-10.84,0-8.62.17-31.74.17-32a.51.51,0,0,1,.5-.49h4.71a.49.49,0,0,1,.5.49c0,.25.18,24.92,0,33.55S273.83,207.23,267.84,207.23Zm-20.39-1h20.39c4.74,0,8.74-7.37,8.92-16.43.16-7.93,0-29.47,0-33h-3.72c0,3.42-.17,23.55-.17,31.46s-2.16,11.84-6.61,11.84h-13.7a4.09,4.09,0,0,0-3.85,2.7Z" fill="#231f20"></path><path d="M198.66,58.38l-8.26,94.48a7.49,7.49,0,0,0,7.39,8.45H310.44a9.24,9.24,0,0,0,8.87-8.45l8.27-94.48a7.48,7.48,0,0,0-7.39-8.45H207.53A9.24,9.24,0,0,0,198.66,58.38Z" fill="#231f20"></path><path d="M310.44,161.81H197.79A7.76,7.76,0,0,1,192,159.3a8.37,8.37,0,0,1-2.1-6.48l8.26-94.48h0a9.77,9.77,0,0,1,9.37-8.91H320.19A7.76,7.76,0,0,1,326,51.94a8.42,8.42,0,0,1,2.1,6.49l-8.27,94.47A9.76,9.76,0,0,1,310.44,161.81ZM199.16,58.43l-8.27,94.47a7.4,7.4,0,0,0,1.85,5.72,6.78,6.78,0,0,0,5,2.19H310.44a8.75,8.75,0,0,0,8.38-8l8.26-94.48a7.37,7.37,0,0,0-1.84-5.72,6.77,6.77,0,0,0-5.05-2.19H207.53a8.74,8.74,0,0,0-8.37,8Z" fill="#231f20"></path><path d="M198.29,58l-7.9,90.21a7.16,7.16,0,0,0,7.06,8.07H305a8.84,8.84,0,0,0,8.47-8.07L321.38,58a7.15,7.15,0,0,0-7.06-8.07H206.76A8.82,8.82,0,0,0,198.29,58Z" fill="#fff"></path><path d="M305,156.78H197.45a7.44,7.44,0,0,1-5.54-2.41,8,8,0,0,1-2-6.21L197.79,58h0a9.33,9.33,0,0,1,9-8.53H314.32a7.46,7.46,0,0,1,5.55,2.41,8,8,0,0,1,2,6.2L314,148.25A9.34,9.34,0,0,1,305,156.78ZM198.78,58l-7.89,90.21a7,7,0,0,0,1.76,5.44,6.41,6.41,0,0,0,4.8,2.09H305a8.33,8.33,0,0,0,8-7.62L320.88,58a7.05,7.05,0,0,0-1.75-5.45,6.45,6.45,0,0,0-4.81-2.08H206.76a8.33,8.33,0,0,0-8,7.61Z" fill="#231f20"></path><path d="M191.72,133.06l-1.33,15.15a7.16,7.16,0,0,0,7.06,8.07H305a8.84,8.84,0,0,0,8.47-8.07l1.32-15.15Z" fill="#fff"></path><path d="M305,156.78H197.45a7.44,7.44,0,0,1-5.54-2.41,8,8,0,0,1-2-6.21L191.22,133a.5.5,0,0,1,.5-.46H314.81a.52.52,0,0,1,.37.16.53.53,0,0,1,.13.38L314,148.25A9.34,9.34,0,0,1,305,156.78ZM192.18,133.56l-1.29,14.69a7,7,0,0,0,1.76,5.44,6.41,6.41,0,0,0,4.8,2.09H305a8.33,8.33,0,0,0,8-7.62l1.27-14.6Z" fill="#231f20"></path><ellipse cx="252.25" cy="144.67" rx="5.39" ry="4.88" transform="translate(-8.36 273.66) rotate(-56.17)" fill="#fff"></ellipse><path d="M251.79,150.4a5,5,0,0,1-3.71-1.61,5.38,5.38,0,0,1-1.35-4.17,6.24,6.24,0,0,1,6-5.69,5,5,0,0,1,3.71,1.61,5.4,5.4,0,0,1,1.35,4.17A6.23,6.23,0,0,1,251.79,150.4Zm.92-10.47a5.23,5.23,0,0,0-5,4.78,4.43,4.43,0,0,0,1.1,3.41,4,4,0,0,0,3,1.28,5.2,5.2,0,0,0,5-4.78,4.35,4.35,0,0,0-1.09-3.4A4,4,0,0,0,252.71,139.93Z" fill="#231f20"></path><rect x="174.11" y="202.33" width="82.78" height="4.54" fill="#fff"></rect><path d="M256.89,207.37H174.11a.51.51,0,0,1-.5-.5v-4.54a.5.5,0,0,1,.5-.5h82.78a.5.5,0,0,1,.5.5v4.54A.5.5,0,0,1,256.89,207.37Zm-82.28-1h81.78v-3.54H174.61Z" fill="#231f20"></path><path d="M162.45,224.24s38.24,9.64,38.24,35.48H99.63s-16.07-15.52-12.1-39.36C128.25,221.77,162.45,224.24,162.45,224.24Z" fill="#fff"></path><path d="M200.7,260.21H99.63a.47.47,0,0,1-.35-.14c-.16-.15-16.21-16-12.24-39.79a.52.52,0,0,1,.51-.42c40.26,1.39,74.6,3.86,74.94,3.88l.09,0c.38.09,38.62,10,38.62,35.95A.5.5,0,0,1,200.7,260.21Zm-100.86-1H200.19c-.48-24.41-36.39-34.1-37.82-34.47-1.43-.11-35-2.49-74.42-3.86C84.52,242.75,98.29,257.62,99.84,259.21Z" fill="#231f20"></path><path d="M214.48,180.5s12.6-6.36,16.13-6.36,14.62,3.14,15.8,6.36,2.69,8.43,1.18,8.6-3.53-5.55-3.53-5-4.37,5.38-9.25,3.87L222,191.45l-7.56-9.58" fill="#fff"></path><path d="M222,192a.49.49,0,0,1-.39-.19l-7.57-9.58a.5.5,0,0,1,.09-.7.49.49,0,0,1,.7.08l7.36,9.32,12.45-3.44a.45.45,0,0,1,.28,0c4.28,1.33,8.26-2.76,8.6-3.47a.52.52,0,0,1,.4-.44c.43-.1.54.15,1,1.07,1.63,3.54,2.35,4,2.61,4,.51-.77-.18-4.09-1.59-7.93-1-2.81-11.52-6-15.33-6-3.37,0-15.78,6.24-15.91,6.3a.5.5,0,0,1-.45-.89c.52-.26,12.75-6.41,16.36-6.41,3.29,0,14.95,3.08,16.27,6.69.78,2.13,2.49,7.25,1.56,8.75a1,1,0,0,1-.8.51c-1.32.15-2.52-2.17-3.62-4.56a11.73,11.73,0,0,1-1.85,1.69c-1.4,1-4.22,2.62-7.36,1.72l-12.64,3.49Z" fill="#231f20"></path><path d="M87.53,220.36S77.45,137.86,89.42,121s41.36-19.59,55-8.71S164.7,223.13,164.7,223.13,128.09,233.94,87.53,220.36Z" fill="#000000"></path><path d="M144.38,112.28s8.71,5.27,15.24,17.33,20.23,56.71,20.23,56.71l36.31-7.8,14.12,13.35s-28.21,14-45.08,21.63-59.94-39.72-59.94-39.72Z" fill="#000000"></path><path d="M168.33,210.8a.54.54,0,0,1-.27-.07c-.29-.18-29.06-18.59-39.2-66.51a.5.5,0,1,1,1-.21c5.25,24.81,15.51,41.4,23.19,51,8.33,10.34,15.5,14.87,15.57,14.92a.5.5,0,0,1-.26.92Z" fill="#231f20"></path><path d="M149.88,77a5.71,5.71,0,1,1,5.71-5.71A5.72,5.72,0,0,1,149.88,77Zm0-10.42a4.71,4.71,0,1,0,4.71,4.71A4.72,4.72,0,0,0,149.88,66.61Z" fill="#231f20"></path><path d="M147.38,75.37s6.07,10,4.66,12-5.79.46-5.79.46" fill="#fff"></path><path d="M149.41,88.84a11.69,11.69,0,0,1-3.33-.57.5.5,0,0,1-.3-.64.5.5,0,0,1,.63-.31c1.12.39,4.24,1.09,5.22-.28.84-1.17-2.23-7.37-4.68-11.41a.5.5,0,0,1,.86-.52c1,1.72,6.16,10.39,4.63,12.52A3.55,3.55,0,0,1,149.41,88.84Z" fill="#231f20"></path><path d="M146.5,62.44c4,3.51,2.51,10.53,2.3,15.14q-.45,9.7-1.35,19.38c-.37,4.09-11,3.77-12.83,2.47l2.25,10.25-23.2-3.4,1.43-13.36s-1.49-18.62,3-26.81,13.29-7.45,13.29-7.45S142.62,59,146.5,62.44Z" fill="#fff"></path><path d="M136.87,110.18h-.07l-23.2-3.4a.51.51,0,0,1-.43-.55l1.43-13.36c-.06-.68-1.44-18.77,3.05-27,4.57-8.4,13.68-7.71,13.78-7.7.44,0,11.44.4,15.4,3.9,3.49,3.08,3,8.6,2.65,13-.08.89-.15,1.73-.18,2.5C149,84,148.55,90.57,148,97a3.43,3.43,0,0,1-2.32,2.76c-2.86,1.31-7.92,1.23-10.31.51l2,9.29a.5.5,0,0,1-.49.61Zm-22.65-4.32,22,3.22-2.1-9.54a.5.5,0,0,1,.21-.52.5.5,0,0,1,.57,0c1.2.84,7.18,1.26,10.3-.17,1.08-.5,1.67-1.15,1.75-2,.59-6.42,1-12.93,1.34-19.36,0-.78.11-1.63.18-2.53.36-4.21.8-9.46-2.31-12.2h0c-3.7-3.27-14.69-3.65-14.8-3.66s-8.59-.62-12.84,7.18c-4.35,8-3,26.35-2.93,26.54Z" fill="#231f20"></path><path d="M109.12,109.43l2.18-7.08,28.47,2.76,1.64,6.49S126.53,118.68,109.12,109.43Z" fill="#fff"></path><path d="M127.78,114.66a40,40,0,0,1-18.9-4.79.5.5,0,0,1-.24-.59l2.18-7.07a.5.5,0,0,1,.52-.35l28.48,2.75a.5.5,0,0,1,.44.38l1.63,6.49a.51.51,0,0,1-.27.58A35.63,35.63,0,0,1,127.78,114.66Zm-18.06-5.48a37.94,37.94,0,0,0,31.1,2.13l-1.44-5.74-27.73-2.68Z" fill="#231f20"></path><path d="M123,94.6c0,11,11.06,33.21,1.59,42-8.91,8.21-24.18,10.36-35.77,9.1-16.85-1.82-25.64-13.5-18.74-29.88,3.37-8,9.31-14.59,14.27-21.71A103.82,103.82,0,0,0,95.29,74c2.47-6,4.31-13,7.62-18.58,7.37-12.4,20.36-17.25,34-13.25,5.86,1.71,17.14,8.77,14.37,16.41-.68,1.88-3,4.68-4.8,3.89-.53,3.63-2.86,5.37-5.7,7.69s-6.13,4-9.19,6a19.23,19.23,0,0,0-5.55,5c-1.81,2.66-2.45,5.93-2.79,9.13A38.85,38.85,0,0,0,123,94.6Z" fill="#fff"></path><path d="M95.05,146.48a58.43,58.43,0,0,1-6.25-.33c-8.92-1-15.71-4.68-19.11-10.47-3.24-5.5-3.25-12.45,0-20.1,2.47-5.87,6.35-11,10.11-16.06,1.41-1.87,2.86-3.81,4.21-5.75a103.73,103.73,0,0,0,10.85-20c.81-2,1.54-4,2.32-6.2a71.35,71.35,0,0,1,5.33-12.45c7.37-12.4,20.62-17.56,34.59-13.47,4.29,1.26,11.53,5.36,14.16,10.55a7.94,7.94,0,0,1,.54,6.51,7.65,7.65,0,0,1-3.51,4.11,2.57,2.57,0,0,1-1.36.23c-.68,3.3-2.88,5.09-5.4,7.15l-.38.3a52.87,52.87,0,0,1-6.1,4.1c-1,.63-2.11,1.27-3.14,2a18.91,18.91,0,0,0-5.4,4.89c-1.83,2.69-2.4,6-2.72,8.9a41.36,41.36,0,0,0-.22,4.25c0,3.51,1.17,8.27,2.41,13.31,2.64,10.74,5.63,22.91-1,29C117.24,144,105.12,146.48,95.05,146.48Zm32.72-105.2c-10,0-18.92,5.09-24.43,14.36a70.36,70.36,0,0,0-5.25,12.28c-.74,2.08-1.51,4.24-2.33,6.24a105.42,105.42,0,0,1-11,20.18c-1.36,2-2.82,3.9-4.23,5.78-3.72,5-7.57,10.09-10,15.85-3.09,7.34-3.1,14,0,19.2,3.24,5.51,9.76,9.06,18.36,10,10.59,1.14,26.2-.52,35.38-9,6.18-5.7,3.26-17.56.69-28-1.25-5.1-2.43-9.92-2.44-13.55h0a40.72,40.72,0,0,1,.23-4.36c.33-3,.92-6.48,2.88-9.35a19.92,19.92,0,0,1,5.69-5.17c1-.68,2.12-1.34,3.16-2a53,53,0,0,0,6-4l.38-.31c2.6-2.12,4.66-3.79,5.14-7.06a.49.49,0,0,1,.25-.37.52.52,0,0,1,.44,0,1.46,1.46,0,0,0,1.17-.06,6.86,6.86,0,0,0,3-3.54,7,7,0,0,0-.5-5.72c-2.49-4.92-9.42-8.83-13.54-10A32,32,0,0,0,127.77,41.28Z" fill="#231f20"></path><path d="M147.48,92.13s-5.13,2.89-7.6-2.4" fill="#fff"></path><path d="M144.4,93.42a5.2,5.2,0,0,1-1.62-.25,5.65,5.65,0,0,1-3.36-3.23.5.5,0,0,1,.25-.66.5.5,0,0,1,.66.24,4.69,4.69,0,0,0,2.75,2.7,5.93,5.93,0,0,0,4.16-.53.5.5,0,1,1,.49.87A7.33,7.33,0,0,1,144.4,93.42Z" fill="#231f20"></path><path d="M120.71,78.77l-.14,0a.5.5,0,0,1-.34-.62c.91-3.19,1.54-3.24,1.81-3.26.51,0,21.8-2.66,33-4.05a.49.49,0,0,1,.55.44.5.5,0,0,1-.43.56c-1.29.16-30.91,3.82-32.94,4a10.21,10.21,0,0,0-1,2.55A.49.49,0,0,1,120.71,78.77Zm1.4-2.9Z" fill="#231f20"></path><path d="M134.81,79a8.85,8.85,0,0,0-1.64-4.51,12.59,12.59,0,0,0-2.24-3,4.24,4.24,0,0,0-3.44-1.19,3.92,3.92,0,0,0-2.62,1.91,7.47,7.47,0,0,0-.93,3.17A13.9,13.9,0,0,0,129.87,88l-.34-.4" fill="#fff"></path><path d="M129.87,88.46a.51.51,0,0,1-.28-.09,14.48,14.48,0,0,1-6.15-13,7.71,7.71,0,0,1,1-3.39,4.38,4.38,0,0,1,3-2.15,4.7,4.7,0,0,1,3.86,1.32,13.23,13.23,0,0,1,2.33,3.15,9.3,9.3,0,0,1,1.71,4.77.48.48,0,0,1-.51.49.49.49,0,0,1-.49-.51,8.61,8.61,0,0,0-1.57-4.24,12.16,12.16,0,0,0-2.14-2.91,3.73,3.73,0,0,0-3-1.08,3.46,3.46,0,0,0-2.27,1.68,6.82,6.82,0,0,0-.86,3,13.46,13.46,0,0,0,5.05,11.62.53.53,0,0,1,.42.17l.34.41a.49.49,0,0,1,0,.65A.52.52,0,0,1,129.87,88.46Z" fill="#231f20"></path><ellipse cx="145.67" cy="70.26" rx="0.91" ry="2.32" transform="translate(-1.09 2.3) rotate(-0.9)" fill="#231f20"></ellipse><path d="M150,237.43c-16.15-4.44-22.39-17.2-23.86-32.87-1.29-13.71,2.3-34.57-7.79-45.6-7.67-8.38-23.39-10.33-34.12-10-17.66.6-24.74,15.4-26.41,31.07a204.3,204.3,0,0,0,.72,47.28c1.23,9.76,1.48,31.34,14.56,33.38,29.39,4.57,67.38,3,96.91,2.24,3.79-.09,7.78-.23,11-2.13,2.53-1.48,3.85-3.77,2.63-6.59a11.5,11.5,0,0,0-3.33-4c-7.48-6.3-17.14-9.24-26.53-11.79Z" fill="#231f20"></path><path d="M124.89,264.34c-18,0-36.23-.69-51.86-3.12-11.8-1.84-13.45-18.55-14.53-29.6-.15-1.55-.29-3-.45-4.2A205.51,205.51,0,0,1,57.33,180c1.23-11.47,6.35-30.81,26.9-31.51,22.7-.77,32.15,7.55,34.5,10.12,7.57,8.28,7.57,21.92,7.58,34,0,4.3,0,8.36.34,11.94,1.68,17.93,9.37,28.54,23.49,32.43h0l2.36.64,1.44.39c9.8,2.65,19.22,5.56,26.72,11.89a12,12,0,0,1,3.47,4.18c1.22,2.82.19,5.45-2.84,7.22-3.44,2-7.77,2.12-11.26,2.2l-9.18.24C149.66,264,137.35,264.34,124.89,264.34ZM86.73,149.46c-.84,0-1.66,0-2.47,0-19.79.67-24.74,19.47-25.93,30.62A204.54,204.54,0,0,0,59,227.29c.16,1.24.3,2.67.46,4.23,1,10.75,2.65,27,13.69,28.71,26.37,4.11,60.34,3.21,87.63,2.48l9.19-.24c3.54-.08,7.56-.18,10.78-2.06,1.49-.87,3.78-2.81,2.42-6a11,11,0,0,0-3.19-3.81c-7.35-6.2-16.65-9.07-26.34-11.7l-1.44-.38-2.36-.64h0c-14.58-4-22.5-14.91-24.23-33.31-.34-3.63-.34-7.71-.34-12,0-11.86,0-25.29-7.32-33.28C111.32,152,97.91,149.46,86.73,149.46Z" fill="#231f20"></path><rect x="238.04" y="219.35" width="85.66" height="40.37" fill="#fff"></rect><path d="M323.71,260.21H238a.5.5,0,0,1-.5-.5V219.35a.5.5,0,0,1,.5-.5h85.67a.5.5,0,0,1,.5.5v40.36A.5.5,0,0,1,323.71,260.21Zm-85.17-1h84.67V219.85H238.54Z" fill="#231f20"></path><rect x="227.85" y="219.35" width="10.19" height="40.37" fill="#fff"></rect><path d="M238,260.21H227.85a.5.5,0,0,1-.5-.5V219.35a.5.5,0,0,1,.5-.5H238a.5.5,0,0,1,.5.5v40.36A.5.5,0,0,1,238,260.21Zm-9.69-1h9.19V219.85h-9.19Z" fill="#231f20"></path><polygon points="223.37 90.48 209.99 90.48 210.87 77.1 224.25 77.1 223.37 90.48" fill="#fff"></polygon><path d="M223.37,91H210a.52.52,0,0,1-.37-.16.51.51,0,0,1-.13-.37l.88-13.39a.5.5,0,0,1,.5-.46h13.38a.51.51,0,0,1,.37.15.53.53,0,0,1,.13.38l-.88,13.38A.51.51,0,0,1,223.37,91Zm-12.85-1H222.9l.82-12.38H211.34Z" fill="#d1d3d4"></path><polygon points="245.23 90.48 231.85 90.48 233.48 65.72 246.86 65.72 245.23 90.48" fill="#fff"></polygon><path d="M245.23,91H231.85a.51.51,0,0,1-.5-.53L233,65.69a.51.51,0,0,1,.5-.47h13.38a.5.5,0,0,1,.5.54l-1.63,24.75A.5.5,0,0,1,245.23,91Zm-12.84-1h12.38l1.56-23.76H234Z" fill="#d1d3d4"></path><polygon points="267.1 90.48 253.72 90.48 255.99 55.91 269.37 55.91 267.1 90.48" fill="#000000"></polygon><path d="M295.76,67.22H277.58a1.5,1.5,0,0,1,0-3h18.18a1.5,1.5,0,0,1,0,3Z" fill="#d1d3d4"></path><path d="M295.26,74.7H277.09a1.5,1.5,0,0,1,0-3h18.17a1.5,1.5,0,0,1,0,3Z" fill="#d1d3d4"></path><path d="M290.08,82.17H276.59a1.5,1.5,0,0,1,0-3h13.49a1.5,1.5,0,0,1,0,3Z" fill="#d1d3d4"></path><path d="M220,109.16H208.79a.48.48,0,0,1-.36-.16.49.49,0,0,1-.14-.38l.59-8.85a.49.49,0,0,1,.49-.47h11.17a.5.5,0,0,1,.5.54l-.58,8.85A.51.51,0,0,1,220,109.16Zm-10.63-1h10.16l.52-7.86H209.84Z" fill="#d1d3d4"></path><path d="M266.39,102.71H231.15a1.5,1.5,0,0,1,0-3h35.24a1.5,1.5,0,0,1,0,3Z" fill="#d1d3d4"></path><path d="M258.67,107.77H230.81a1.5,1.5,0,0,1,0-3h27.86a1.5,1.5,0,0,1,0,3Z" fill="#d1d3d4"></path><path d="M213.52,107.21a2.09,2.09,0,0,1-.35,0,1.5,1.5,0,0,1-1-.85l-.92-2a1.5,1.5,0,1,1,2.73-1.24l.12.26,2.27-1.86a1.5,1.5,0,0,1,1.9,2.33l-3.79,3.09A1.49,1.49,0,0,1,213.52,107.21Z" fill="#000000"></path><path d="M218.94,124.61H207.77a.48.48,0,0,1-.36-.16.52.52,0,0,1-.14-.37l.59-8.85a.5.5,0,0,1,.5-.47h11.17a.48.48,0,0,1,.36.16.5.5,0,0,1,.14.37l-.59,8.85A.5.5,0,0,1,218.94,124.61Zm-10.63-1h10.17l.51-7.85H208.82Z" fill="#d1d3d4"></path><path d="M265.38,118.16H230.13a1.5,1.5,0,0,1,0-3h35.25a1.5,1.5,0,0,1,0,3Z" fill="#d1d3d4"></path><path d="M257.65,123.22H229.79a1.5,1.5,0,0,1,0-3h27.86a1.5,1.5,0,0,1,0,3Z" fill="#d1d3d4"></path><path d="M212.5,122.66a1.27,1.27,0,0,1-.34,0,1.51,1.51,0,0,1-1-.84l-.92-2a1.5,1.5,0,0,1,2.74-1.23l.11.25,2.28-1.85a1.5,1.5,0,1,1,1.89,2.32l-3.78,3.09A1.51,1.51,0,0,1,212.5,122.66Z" fill="#000000"></path><path d="M279.58,110.33h-6.65a.48.48,0,0,1-.37-.17.47.47,0,0,1-.12-.39,16.63,16.63,0,0,1,4.49-9.34A16.1,16.1,0,0,1,278.47,99a16.56,16.56,0,0,1,9.59-3.87.46.46,0,0,1,.38.14.51.51,0,0,1,.15.39l-.44,6.64a.5.5,0,0,1-.44.47,8.57,8.57,0,0,0-4.23,1.71,9,9,0,0,0-1.42,1.33,8.76,8.76,0,0,0-2,4.12A.49.49,0,0,1,279.58,110.33Zm-6.07-1h5.66a9.74,9.74,0,0,1,2.13-4.18,10.08,10.08,0,0,1,1.58-1.48,9.72,9.72,0,0,1,4.3-1.85l.37-5.66a15.6,15.6,0,0,0-8.44,3.6h0a16.81,16.81,0,0,0-1.45,1.36A15.79,15.79,0,0,0,273.51,109.33Zm5.28-10h0Z" fill="#d1d3d4"></path><path d="M287.08,126.57c-.35,0-.69,0-1,0a14.58,14.58,0,0,1-13.75-14.71.5.5,0,0,1,.5-.5h6.65a.5.5,0,0,1,.5.47,7.51,7.51,0,0,0,1.43,4.09,7.33,7.33,0,0,0,1.23,1.32,7.54,7.54,0,0,0,4,1.69,8.44,8.44,0,0,0,1.88,0,8.67,8.67,0,0,0,4.22-1.71,9,9,0,0,0,1.42-1.33,8.76,8.76,0,0,0,2-4.12c.05-.31.09-.62.11-.94s0-.63,0-.94a7.53,7.53,0,0,0-1.43-4.08.48.48,0,0,1,.07-.65l5-4.71a.49.49,0,0,1,.38-.13.47.47,0,0,1,.35.18,14.65,14.65,0,0,1,3.28,9.37c0,.34,0,.68,0,1s-.05.69-.1,1a16.64,16.64,0,0,1-4.49,9.33,16.1,16.1,0,0,1-1.54,1.44,16.53,16.53,0,0,1-9.59,3.87C287.77,126.56,287.42,126.57,287.08,126.57Zm-13.77-14.25a13.6,13.6,0,0,0,3.05,8.24,13.42,13.42,0,0,0,1.26,1.35,13.57,13.57,0,0,0,8.5,3.63,15.37,15.37,0,0,0,1.92,0,15.55,15.55,0,0,0,9-3.65,14.32,14.32,0,0,0,1.45-1.36,15.7,15.7,0,0,0,4.23-8.78c0-.32.07-.63.09-1s0-.64,0-1h0a13.73,13.73,0,0,0-2.72-8.31l-4.3,4a8.59,8.59,0,0,1,1.37,4.26c0,.35,0,.69,0,1a9.41,9.41,0,0,1-.13,1,9.65,9.65,0,0,1-2.21,4.59,10.08,10.08,0,0,1-1.58,1.48,9.73,9.73,0,0,1-4.71,1.91,10.53,10.53,0,0,1-2.1,0A8.54,8.54,0,0,1,282,118a7.91,7.91,0,0,1-1.4-1.49,8.48,8.48,0,0,1-1.58-4.15Z" fill="#d1d3d4"></path><path d="M298.88,99.37a14.2,14.2,0,0,0-8.81-3.76l-.43,6.65a8.09,8.09,0,0,1,4.24,1.81Z" fill="#000000"></path><path d="M113.77,195.46a.5.5,0,0,1-.5-.5c0-.18,0-18.59-4-28.28-3.87-9.5-19.35-11.54-19.5-11.56a.5.5,0,1,1,.12-1c.66.08,16.21,2.14,20.31,12.18,4,9.86,4.06,27.89,4.06,28.65A.5.5,0,0,1,113.77,195.46Z" fill="#fff"></path></g></svg>