<svg xmlns="http://www.w3.org/2000/svg" viewBox="0 0 400 300" width="406" height="306" class="illustration styles_illustrationTablet__1DWOa"><g id="_252_money_transfer_flatline" data-name="#252_money_transfer_flatline"><path d="M331.91,150a130.53,130.53,0,0,1-8,45c-.22.59-.43,1.17-.66,1.75a130.94,130.94,0,0,1-32.85,48.77c-1.16,1.08-2.33,2.14-3.53,3.17A130.84,130.84,0,0,1,70.2,150v-.39A132.48,132.48,0,0,1,71.57,131l.09-.57A129.91,129.91,0,0,1,95.08,73.23s0,0,0,0A130.86,130.86,0,0,1,331.91,150Z" fill="#fff"></path><path d="M201.05,281.35A131.49,131.49,0,0,1,69.7,150v-.39A132.47,132.47,0,0,1,71.08,131l.09-.58A129.66,129.66,0,0,1,85.75,87a131.33,131.33,0,0,1,8.93-14.08h0l0-.06A131.82,131.82,0,0,1,201.05,18.65c72.43,0,131.36,58.92,131.36,131.35a130.87,130.87,0,0,1-8,45.21l-.16.44c-.17.45-.33.89-.51,1.32a132.12,132.12,0,0,1-33,49c-1.3,1.2-2.45,2.24-3.54,3.18A131.24,131.24,0,0,1,201.05,281.35ZM95.46,73.55a131.34,131.34,0,0,0-8.83,14,129.14,129.14,0,0,0-14.48,43l-.09.58a133.35,133.35,0,0,0-1.36,18.51V150a130.34,130.34,0,0,0,215.88,98.35c1.08-.93,2.23-2,3.52-3.16a131.07,131.07,0,0,0,32.72-48.58c.18-.44.34-.87.5-1.3l.16-.44A129.94,129.94,0,0,0,331.41,150c0-71.88-58.48-130.35-130.36-130.35A130.84,130.84,0,0,0,95.5,73.5.1.1,0,0,1,95.46,73.55Z" fill="#231f20"></path><path d="M94.2,83s30.12-4.54,36.56-6.14,20-9.18,20.22-9.33a60.07,60.07,0,0,1,7.26-3.25A54.13,54.13,0,0,1,165,62.8a29.88,29.88,0,0,1,13.9,1c7.19,2.46,12.67,8.21,18.27,13.35C206.32,85.5,216.4,92,226.52,99c2.63,1.83,5.33,3.81,6.77,6.68a4.43,4.43,0,0,1-4.29,7c-3,0-5.75-1.21-8.57-2.09-2.52-.79-8.31-2-9.74,1.25-1.14,2.61,3.93,4.77,3.15,7.94-.63,2.52-3.27,2.61-5.29,2.43-.78-.07-6.31-1-6.55-1.3,1.38,1.8-.14,4.69-2.34,5.25s-4.32-.71-6.07-1.91a6.18,6.18,0,0,1-4.12,5.18c-5,2.07-10,.41-15-.63-4.52-.94-9.16-1.08-13.67-2.14-6.88-1.62-13.35-4.48-20-6.84-7.39-2.63-24.64,1.49-24.64,1.49Z" fill="#fff"></path><path d="M184.24,130.94a35.31,35.31,0,0,1-7.71-1.16l-2.15-.47c-2.08-.43-4.23-.7-6.32-1a70.35,70.35,0,0,1-7.36-1.18,112.85,112.85,0,0,1-14.36-4.75c-1.89-.71-3.78-1.43-5.69-2.11-7.16-2.55-24.18,1.47-24.35,1.51a.5.5,0,0,1-.55-.24l-22-38.37a.47.47,0,0,1,0-.46.48.48,0,0,1,.37-.28c.3,0,30.18-4.56,36.52-6.14s20-9.19,20.08-9.27a61.15,61.15,0,0,1,7.39-3.3A53.1,53.1,0,0,1,165,62.3a30.35,30.35,0,0,1,14.13,1c6.36,2.17,11.39,6.87,16.26,11.42l2.19,2C205,83.64,213,89.14,221.5,95c1.77,1.21,3.54,2.42,5.31,3.66,2.82,2,5.48,4,6.93,6.86A4.93,4.93,0,0,1,229,113.2a20.56,20.56,0,0,1-6.89-1.5c-.61-.21-1.22-.42-1.83-.61-1.28-.4-7.73-2.23-9.13,1-.44,1,.39,2,1.35,3.22s2.27,2.8,1.82,4.64c-.8,3.26-4.57,2.92-5.81,2.81,0,0-3.57-.49-5.58-1a3.63,3.63,0,0,1-.12,2.05,4.56,4.56,0,0,1-3,2.88c-2.15.54-4.12-.44-5.84-1.56a6.65,6.65,0,0,1-4.28,4.8A14,14,0,0,1,184.24,130.94Zm-50.17-12.48a21.54,21.54,0,0,1,6.92.91c1.91.68,3.8,1.4,5.7,2.12a114.7,114.7,0,0,0,14.24,4.71,69.37,69.37,0,0,0,7.26,1.16c2.1.26,4.27.53,6.39,1l2.17.48c4.31,1,8.38,1.89,12.53.18a5.73,5.73,0,0,0,3.82-4.79.49.49,0,0,1,.29-.39.51.51,0,0,1,.49,0c1.76,1.21,3.65,2.35,5.66,1.84a3.54,3.54,0,0,0,2.32-2.24,2.37,2.37,0,0,0-.25-2.23h0a.51.51,0,0,1,.1-.7.48.48,0,0,1,.62,0,54.54,54.54,0,0,0,6.27,1.2c2.88.25,4.35-.38,4.76-2.06.33-1.35-.62-2.53-1.63-3.77s-2.17-2.67-1.49-4.25c1.7-3.88,8.35-2.15,10.35-1.53l1.86.62A19.35,19.35,0,0,0,229,112.2a4.69,4.69,0,0,0,4.06-1.8,4.63,4.63,0,0,0-.21-4.47c-1.34-2.69-3.89-4.6-6.6-6.49l-5.3-3.66c-8.5-5.84-16.53-11.35-24.09-18.29l-2.2-2c-4.79-4.48-9.74-9.1-15.89-11.21a29.48,29.48,0,0,0-13.67-.95,52.87,52.87,0,0,0-6.71,1.44,60,60,0,0,0-7.14,3.19c-.12.07-13.88,7.77-20.36,9.38-5.83,1.46-31.26,5.35-35.89,6l21.44,37.41A90.25,90.25,0,0,1,134.07,118.46Z" fill="#231f20"></path><rect x="174.65" y="38.5" width="53.78" height="102.03" rx="3.34" transform="matrix(0.5, 0.87, -0.87, 0.5, 179.01, -129.85)" fill="#fff"></rect><path d="M171.89,137.49a3.82,3.82,0,0,1-3.34-1.93h0L145.13,94.7a3.86,3.86,0,0,1,1.43-5.25l82.72-47.4a3.86,3.86,0,0,1,5.25,1.43l23.41,40.86a3.82,3.82,0,0,1-1.42,5.24L173.79,137A3.74,3.74,0,0,1,171.89,137.49Zm-2.48-2.43a2.86,2.86,0,0,0,3.89,1.06L256,88.72A2.83,2.83,0,0,0,257.35,87a2.86,2.86,0,0,0-.27-2.16L233.66,44a2.84,2.84,0,0,0-3.88-1l-82.72,47.4A2.84,2.84,0,0,0,146,94.2Z" fill="#231f20"></path><path d="M181.68,129.26a.5.5,0,0,1-.43-.25L157.32,87.25a.5.5,0,0,1,.18-.68l68.14-39a.46.46,0,0,1,.38-.05.52.52,0,0,1,.3.23l23.93,41.76a.51.51,0,0,1-.19.69l-68.13,39A.45.45,0,0,1,181.68,129.26ZM158.43,87.18l23.44,40.9,67.26-38.54L225.7,48.64Z" fill="#d1d3d4"></path><path d="M164.34,119.37a2.56,2.56,0,0,1-2.22-1.29l-4.6-8a2.55,2.55,0,0,1,.95-3.49l2.8-1.61a2.55,2.55,0,0,1,3.49,1l4.6,8a2.55,2.55,0,0,1-1,3.49l-2.8,1.61A2.6,2.6,0,0,1,164.34,119.37Zm-1.8-13.76a1.49,1.49,0,0,0-.77.21L159,107.43a1.54,1.54,0,0,0-.57,2.12l4.6,8h0a1.55,1.55,0,0,0,2.12.58l2.81-1.61a1.49,1.49,0,0,0,.72-.94,1.52,1.52,0,0,0-.15-1.18l-4.6-8a1.56,1.56,0,0,0-.94-.73A1.51,1.51,0,0,0,162.54,105.61Z" fill="#d1d3d4"></path><path d="M243.83,70.41a.5.5,0,0,1-.44-.25l-6.81-11.89a.49.49,0,0,1,.18-.68.51.51,0,0,1,.69.18l6.81,11.89a.49.49,0,0,1-.19.68A.42.42,0,0,1,243.83,70.41Z" fill="#d1d3d4"></path><path d="M245.83,73.59a.5.5,0,0,1-.43-.25l-.91-1.59a.5.5,0,1,1,.86-.5l.92,1.6a.51.51,0,0,1-.19.68A.54.54,0,0,1,245.83,73.59Z" fill="#d1d3d4"></path><path d="M151.79,67.05s15.27-10.38,22-4.44c4.46,4,13,28.6,7.36,28.7s-11.26-15.39-11.26-15.39-13.33,12.17-24.52,9.52" fill="#fff"></path><path d="M181.05,91.81c-5.25,0-10.23-12-11.42-15-2.67,2.29-14.27,11.55-24.43,9.16a.51.51,0,0,1-.37-.61.5.5,0,0,1,.6-.37c10.81,2.55,23.94-9.28,24.08-9.4a.49.49,0,0,1,.8.2c1.54,4.21,6.48,15.14,10.79,15.06.31,0,.77-.11,1.07-.92,1.74-4.68-4.94-23.5-8.76-26.9-6.32-5.62-21.19,4.37-21.34,4.48a.5.5,0,0,1-.69-.14.49.49,0,0,1,.13-.69c.64-.43,15.67-10.53,22.56-4.4,2.19,1.94,5,8.09,6.75,13.32.87,2.55,3.6,11.14,2.29,14.67a2.11,2.11,0,0,1-2,1.58Z" fill="#231f20"></path><path d="M131.57,73.09l-9,53.26-50.9,4.1A129.91,129.91,0,0,1,95.08,73.23s0,0,0,0Z" fill="#231f20"></path><path d="M309.33,206.79s-29.8-6.32-36.13-8.3S253.8,188.13,253.58,188a60.44,60.44,0,0,0-7.06-3.67,53.77,53.77,0,0,0-6.68-1.85,30,30,0,0,0-13.94.14c-7.33,2-13.13,7.45-19,12.24-9.61,7.83-20.06,13.69-30.59,20.13-2.73,1.67-5.54,3.49-7.14,6.26a4.43,4.43,0,0,0,3.86,7.24c2.95.21,5.81-.87,8.68-1.58,2.56-.63,8.41-1.53,9.64,1.83,1,2.67-4.2,4.53-3.61,7.73.32,1.69,2.1,2.77,3.82,2.9a14.73,14.73,0,0,0,5-.93,66.9,66.9,0,0,1,13.63-2c4.63-.32,1.52-1,5,1.52,4.18,3,8.94,7,14,8.58,8,2.47,23.92-3.52,31.46-5.71s24.5,3,24.5,3Z" fill="#fff"></path><path d="M233.69,247.62a16.19,16.19,0,0,1-4.7-.6c-4.34-1.33-8.48-4.44-12.14-7.19l-2-1.47a9.73,9.73,0,0,1-1.89-1.68l-.06-.07-.25,0a19.11,19.11,0,0,1-2.43.29,67.1,67.1,0,0,0-13.54,1.95l-.63.19a13.15,13.15,0,0,1-4.58.76c-1.84-.14-3.9-1.32-4.27-3.31s1-3.27,2.1-4.52,1.92-2.09,1.54-3.13c-1.21-3.28-7.76-1.84-9.06-1.51-.62.15-1.24.32-1.87.49a20.78,20.78,0,0,1-7,1.1,4.93,4.93,0,0,1-4.27-8c1.62-2.8,4.39-4.65,7.32-6.44,1.84-1.13,3.68-2.23,5.52-3.34,8.8-5.3,17.11-10.31,25-16.74l2.31-1.91c5.12-4.24,10.43-8.64,16.9-10.43a30.34,30.34,0,0,1,14.17-.15,55,55,0,0,1,6.74,1.86,61.87,61.87,0,0,1,7.18,3.74c.12.08,13.26,8.5,19.49,10.45s35.79,8.23,36.09,8.29a.54.54,0,0,1,.36.3.52.52,0,0,1-.05.47l-24.23,37a.5.5,0,0,1-.56.21c-.17-.06-16.92-5.08-24.22-3-1.24.36-2.7.82-4.31,1.33C249.87,244.71,240.64,247.62,233.69,247.62Zm-20.68-12c.28,0,.46.1.73.42a8.52,8.52,0,0,0,1.72,1.52l2,1.48c3.59,2.7,7.67,5.75,11.84,7,6.57,2,18.77-1.84,26.84-4.38,1.62-.52,3.09-1,4.33-1.34,7.07-2,21.87,2.1,24.43,2.85l23.63-36.07c-4.58-1-29.74-6.37-35.47-8.17-6.37-2-19.65-10.5-19.76-10.58a60.89,60.89,0,0,0-6.94-3.61,52.5,52.5,0,0,0-6.61-1.83,29.55,29.55,0,0,0-13.7.13c-6.27,1.74-11.49,6.06-16.54,10.24-.77.65-1.54,1.28-2.31,1.91-8,6.48-16.31,11.51-25.14,16.83-1.83,1.1-3.67,2.21-5.5,3.33-2.82,1.73-5.48,3.49-7,6.09A3.95,3.95,0,0,0,173,228a20,20,0,0,0,6.63-1.06c.63-.17,1.26-.35,1.89-.5,2-.51,8.77-1.84,10.23,2.14.6,1.61-.59,2.9-1.73,4.15s-2.11,2.29-1.85,3.66,1.89,2.38,3.35,2.49a12.5,12.5,0,0,0,4.23-.72l.64-.19a68.09,68.09,0,0,1,13.74-2,21.11,21.11,0,0,0,2.33-.27A2.76,2.76,0,0,1,213,235.61Z" fill="#231f20"></path><rect x="174.9" y="155.93" width="53.78" height="102.03" rx="3.34" transform="translate(485.48 151.53) rotate(123.22)" fill="#fff"></rect><path d="M228.76,256.61a3.8,3.8,0,0,1-2.1-.63l-79.75-52.24a3.84,3.84,0,0,1-1.11-5.32L171.6,159a3.84,3.84,0,0,1,5.32-1.11l79.76,52.24a3.84,3.84,0,0,1,1.11,5.32L232,254.87a3.85,3.85,0,0,1-2.43,1.66A3.62,3.62,0,0,1,228.76,256.61Zm-53.94-98.32a3,3,0,0,0-.59.06,2.82,2.82,0,0,0-1.8,1.23L146.63,199a2.86,2.86,0,0,0,.82,3.94l79.76,52.24a2.86,2.86,0,0,0,3.94-.82h0l25.8-39.4a2.84,2.84,0,0,0-.82-3.94l-79.76-52.24A2.87,2.87,0,0,0,174.82,158.29Z" fill="#231f20"></path><path d="M219.28,247.81a.46.46,0,0,1-.27-.09l-65.69-43a.49.49,0,0,1-.15-.69l26.37-40.27a.47.47,0,0,1,.32-.21.48.48,0,0,1,.37.07l65.69,43a.5.5,0,0,1,.15.69L219.7,247.58A.51.51,0,0,1,219.28,247.81Zm-65-43.67,64.85,42.47L245,207.19,180.1,164.71Z" fill="#d1d3d4"></path><path d="M237.3,239a2.6,2.6,0,0,1-1.4-.41l-2.7-1.77a2.57,2.57,0,0,1-.74-3.54l5.07-7.75a2.56,2.56,0,0,1,3.54-.74l2.7,1.77a2.54,2.54,0,0,1,1.11,1.62,2.51,2.51,0,0,1-.37,1.92l-5.07,7.75a2.54,2.54,0,0,1-1.62,1.1A2.29,2.29,0,0,1,237.3,239Zm2.37-13.62-.32,0a1.53,1.53,0,0,0-1,.67l-5.07,7.74a1.57,1.57,0,0,0,.45,2.16l2.7,1.77a1.51,1.51,0,0,0,1.17.22,1.48,1.48,0,0,0,1-.67h0l5.08-7.74a1.57,1.57,0,0,0-.45-2.16l-2.71-1.77A1.51,1.51,0,0,0,239.67,225.34Z" fill="#d1d3d4"></path><path d="M160.75,185.36a.48.48,0,0,1-.28-.08.5.5,0,0,1-.14-.69l7.51-11.47a.5.5,0,1,1,.83.55l-7.51,11.47A.49.49,0,0,1,160.75,185.36Z" fill="#d1d3d4"></path><path d="M158.55,188.42a.53.53,0,0,1-.27-.08.5.5,0,0,1-.15-.69l1-1.54a.5.5,0,0,1,.69-.15.51.51,0,0,1,.15.7l-1,1.53A.48.48,0,0,1,158.55,188.42Z" fill="#d1d3d4"></path><path d="M193.3,226.58a5.58,5.58,0,0,1,2.18,8.91,6.29,6.29,0,0,1-2.54,1.71,6.51,6.51,0,0,1-5.44-.38,6.11,6.11,0,0,1-2.15-7.89C186.61,226.39,190.84,225.63,193.3,226.58Z" fill="#fff"></path><path d="M190.58,238.12a6.35,6.35,0,0,1-5.68-9.41c1.36-2.75,5.8-3.67,8.58-2.6a6.09,6.09,0,0,1,2.38,9.71,6.87,6.87,0,0,1-2.75,1.85A7.38,7.38,0,0,1,190.58,238.12Zm.41-11.44c-2.09,0-4.4.87-5.19,2.47a5.65,5.65,0,0,0,1.94,7.24,6,6,0,0,0,5,.34,5.87,5.87,0,0,0,2.35-1.57,5.09,5.09,0,0,0-2-8.12A6,6,0,0,0,191,226.68Z" fill="#231f20"></path><path d="M206.8,234.13a4.21,4.21,0,0,1,3.35,1.49,5,5,0,0,1,.82,2.14,7.06,7.06,0,0,1-1.32,6,8.59,8.59,0,0,1-3.27,2.06c-2.07.85-4.39,1.45-6.53.79-3.09-1-5.67-5.36-3.28-8.17C198.52,236.11,203.85,234.11,206.8,234.13Z" fill="#fff"></path><path d="M201.8,247.36a6.88,6.88,0,0,1-2.1-.31,7,7,0,0,1-4.35-4.58,4.6,4.6,0,0,1,.83-4.38c2-2.41,7.52-4.46,10.58-4.46h0a4.69,4.69,0,0,1,3.75,1.69,5.53,5.53,0,0,1,.92,2.35,7.48,7.48,0,0,1-1.45,6.39,9.13,9.13,0,0,1-3.45,2.2A12.72,12.72,0,0,1,201.8,247.36Zm5-12.73c-2.8,0-8,1.92-9.81,4.11a3.6,3.6,0,0,0-.64,3.46,6,6,0,0,0,3.69,3.9c1.67.52,3.64.28,6.19-.77a8.21,8.21,0,0,0,3.09-1.93,6.55,6.55,0,0,0,1.2-5.55,4.33,4.33,0,0,0-.73-1.93,3.7,3.7,0,0,0-2.95-1.29Z" fill="#231f20"></path><path d="M214.16,241.17a5.88,5.88,0,0,1,2.52-.43,5.12,5.12,0,0,1,4.23,3.45,7.23,7.23,0,0,1-.54,5.59,8.14,8.14,0,0,1-5.11,4.23,6.57,6.57,0,0,1-6.28-1.72C204.84,247.91,209.94,242.77,214.16,241.17Z" fill="#fff"></path><path d="M213.62,254.71a6.88,6.88,0,0,1-5-2.07,5.37,5.37,0,0,1-1.53-5.06c.7-3.07,4-5.78,6.89-6.88h0a6.47,6.47,0,0,1,2.74-.46,5.58,5.58,0,0,1,4.66,3.79,7.68,7.68,0,0,1-.57,6,8.59,8.59,0,0,1-5.42,4.48A7.15,7.15,0,0,1,213.62,254.71Zm.72-13.07c-2.65,1-5.65,3.44-6.28,6.16a4.39,4.39,0,0,0,1.28,4.15,6.09,6.09,0,0,0,5.8,1.57,7.6,7.6,0,0,0,4.78-4,6.72,6.72,0,0,0,.52-5.2,4.62,4.62,0,0,0-3.8-3.12,5.4,5.4,0,0,0-2.3.4Z" fill="#231f20"></path><path d="M252.79,187.48s-4.26-2.93-12.95-5c-7.92-1.91-32.3-2.06-32.48,3.8s26.88,9,26.88,9,12.59,12.94,23.92,11" fill="#fff"></path><path d="M255.7,206.93c-10.19,0-20.38-9.88-21.69-11.2-3.53-.42-27.33-3.47-27.15-9.5a3.07,3.07,0,0,1,1.39-2.35c5.11-3.91,24.4-3.68,31.71-1.92,8.68,2.1,12.93,5,13.11,5.11a.5.5,0,0,1,.13.7.51.51,0,0,1-.7.13s-4.3-2.91-12.78-5c-7-1.69-26.05-1.95-30.87,1.73a2.13,2.13,0,0,0-1,1.59c-.11,3.94,16.16,7.3,26.44,8.5a.51.51,0,0,1,.3.15c.12.13,12.54,12.72,23.47,10.82a.49.49,0,0,1,.58.41.5.5,0,0,1-.41.58A15.45,15.45,0,0,1,255.7,206.93Z" fill="#231f20"></path><path d="M323.29,196.79a130.94,130.94,0,0,1-32.85,48.77c-1.16,1.08-2.33,2.14-3.53,3.17l-19.56-3.49,11.54-48.71Z" fill="#231f20"></path><path d="M183,185.44l2.92,3.36c1.87,2.32,7.78.68,13.21-3.66s8.32-9.76,6.45-12.09l-2.92-3.35Z" fill="#000000"></path><path d="M188.65,190.36a3.82,3.82,0,0,1-3.14-1.25l-2.91-3.34a.5.5,0,0,1,.07-.72l19.66-15.74a.5.5,0,0,1,.69.06l2.92,3.35c1.05,1.31.89,3.38-.43,5.85A26.3,26.3,0,0,1,191.3,190,10,10,0,0,1,188.65,190.36Zm-5-4.85,2.58,3c.77,1,2.5,1.14,4.75.52a25.4,25.4,0,0,0,13.6-10.89c1.1-2.06,1.3-3.79.54-4.73l-2.59-3Z" fill="#231f20"></path><ellipse cx="192.81" cy="177.57" rx="12.59" ry="5.4" transform="translate(-68.69 159.5) rotate(-38.69)" fill="#000000"></ellipse><path d="M185.73,187a3.84,3.84,0,0,1-3.14-1.24c-1-1.29-.88-3.36.44-5.83a26.3,26.3,0,0,1,14.21-11.38c2.7-.75,4.76-.45,5.79.84h0c1,1.29.88,3.36-.44,5.83a26.41,26.41,0,0,1-14.21,11.38A10,10,0,0,1,185.73,187Zm14.16-17.86a9.23,9.23,0,0,0-2.38.37,25.33,25.33,0,0,0-13.59,10.89c-1.11,2.06-1.31,3.79-.55,4.73s2.49,1.13,4.74.51a25.45,25.45,0,0,0,13.59-10.89c1.11-2.07,1.31-3.79.55-4.74h0A2.92,2.92,0,0,0,199.89,169.14Z" fill="#231f20"></path><path d="M199.43,171.52l-1.31,1.23c-.08.08-.08.1,0,.12a1.5,1.5,0,0,1,1.2.77c.19.45,0,1-.63,1.73-.15.18-.34.37-.51.57l-2.28-.14a1.54,1.54,0,0,0,.5-.8,1.72,1.72,0,0,0-.11-.46l-.07,0-2.43,2.29.16.07a3.32,3.32,0,0,1,1.14.64c.49.46.32,1.15-.49,2a8.49,8.49,0,0,1-2.78,2,7.27,7.27,0,0,1-2.47.67c-.45,0-.85,0-1.29,0l-.89.85-1.4-.45.88-.83a4.07,4.07,0,0,1-.53-.46,1.11,1.11,0,0,1-.13-1.27,4.49,4.49,0,0,1,1.08-1.42l1.47.25c-.57.62-.75,1.11-.33,1.41l2.39-2.28-.65-.4a.75.75,0,0,1-.39-.68,2.07,2.07,0,0,1,.56-1.06,7.74,7.74,0,0,1,1.56-1.4,9.52,9.52,0,0,1,3.07-1.44c.42-.11.81-.16,1.22-.24l.14,0,1.28-1.21Zm-9.72,9.18a2.89,2.89,0,0,0,1.08-.17c.71-.23,1.46-.84,1.52-1.25s-.22-.45-.43-.63Zm4.78-6.35c-.36.11-.67.18-1,.3-.77.28-1.51.94-1.46,1.29,0,.19.22.27.4.37Z" fill="#fff"></path><path d="M194.65,108l-2.18,3.87c-1.57,2.54,1.94,7.56,7.86,11.23s12,4.58,13.54,2l2.19-3.87Z" fill="#000000"></path><path d="M210.36,127a11.8,11.8,0,0,1-1.71-.14,26.39,26.39,0,0,1-15.47-9.59c-1.61-2.3-2-4.33-1.14-5.74l2.17-3.86a.52.52,0,0,1,.31-.23.48.48,0,0,1,.39,0l21.41,13.27a.5.5,0,0,1,.17.67l-2.18,3.88C213.62,126.46,212.25,127,210.36,127Zm-15.53-18.38-1.93,3.42c-.65,1-.24,2.74,1.1,4.65a25.39,25.39,0,0,0,14.8,9.18c2.32.35,4,0,4.65-1.07l1.94-3.44Z" fill="#231f20"></path><ellipse cx="205.35" cy="114.59" rx="5.4" ry="12.59" transform="matrix(0.53, -0.85, 0.85, 0.53, -0.24, 228.77)" fill="#000000"></ellipse><path d="M212.53,123.16c-2.78,0-6.53-1.23-10.28-3.55-6.24-3.87-9.77-9.1-8-11.91s8-2,14.24,1.88,9.76,9.1,8,11.91h0C215.79,122.61,214.37,123.16,212.53,123.16ZM198.13,107c-1.46,0-2.55.39-3.06,1.2-1.39,2.26,2.13,7.08,7.7,10.54s11.46,4.46,12.86,2.21-2.13-7.08-7.7-10.54C204.38,108.23,200.69,107,198.13,107Zm17.93,14.21h0Z" fill="#231f20"></path><path d="M213.27,118.81l-1.6-.82c-.1,0-.12,0-.11,0a1.47,1.47,0,0,1-.33,1.39c-.36.32-1,.31-1.84,0-.23-.08-.46-.19-.71-.29l-.63-2.2a1.58,1.58,0,0,0,.93.21,1.77,1.77,0,0,0,.39-.26l-.05,0-3-1.53a1.09,1.09,0,0,0,0,.18,3.51,3.51,0,0,1-.22,1.28c-.28.62-1,.68-2.08.22a8.42,8.42,0,0,1-2.79-2,7.12,7.12,0,0,1-1.46-2.11c-.18-.41-.3-.8-.45-1.2l-1.09-.56-.05-1.47,1.07.55a4.89,4.89,0,0,1,.26-.65,1.11,1.11,0,0,1,1.16-.55,4.67,4.67,0,0,1,1.7.54l.25,1.47c-.77-.32-1.29-.33-1.44.16l3,1.5c.05-.26.09-.51.16-.75a.71.71,0,0,1,.5-.59,2,2,0,0,1,1.18.16,8.56,8.56,0,0,1,1.85,1,9.54,9.54,0,0,1,2.38,2.41c.24.36.42.71.63,1.07l.07.13,1.57.8Zm-11.9-6.09a2.78,2.78,0,0,0,.52,1,2.46,2.46,0,0,0,1.69,1c.32-.06.35-.37.44-.62Zm7.58,2.39c-.22-.31-.39-.58-.61-.85-.53-.63-1.4-1.11-1.71-1s-.18.3-.22.51Z" fill="#fff"></path><path d="M185.05,127.24c-4.51,1.63-8.13,10.44-8.13,10.44l1.15,4.38a11.59,11.59,0,1,0,21.8-7.85L198,130.1S189.56,125.62,185.05,127.24Z" fill="#000000"></path><path d="M189,150.23a12.13,12.13,0,0,1-11.36-8l-1.17-4.42a.59.59,0,0,1,0-.32c.15-.36,3.76-9,8.43-10.72h0c4.67-1.68,13,2.7,13.33,2.89a.54.54,0,0,1,.22.23l1.89,4.11A12.09,12.09,0,0,1,189,150.23Zm-11.52-12.51,1.12,4.21a11.08,11.08,0,0,0,20.84-7.55l-1.81-3.91c-1.13-.58-8.44-4.18-12.37-2.76S177.94,136.56,177.44,137.72Z" fill="#231f20"></path><circle cx="187.98" cy="135.37" r="11.58" fill="#000000"></circle><path d="M188,147.45a12.08,12.08,0,1,1,5.13-23,12,12,0,0,1,6.22,6.84A12.07,12.07,0,0,1,188,147.45Zm0-23.17a11.09,11.09,0,0,0-10.43,14.84,11.08,11.08,0,1,0,20.85-7.5h0a11,11,0,0,0-5.71-6.28A11.12,11.12,0,0,0,188,124.28Z" fill="#231f20"></path><path d="M186.29,127.16l.57,1.58c0,.11.08.13.19.11a4.94,4.94,0,0,1,2.47.23,3.64,3.64,0,0,1,2,1.66c.12.21.21.43.33.66l-2.45.88a1.81,1.81,0,0,0-.73-.88,9.21,9.21,0,0,0-.87-.34l0,.05,1.1,3.06.29,0a9,9,0,0,1,2.14-.08,3,3,0,0,1,2.51,1.72,3.91,3.91,0,0,1-1,4.9c-.4.32-.83.59-1.27.9l.43,1.19-2.26.81-.44-1.22c-.5,0-1,.1-1.44.11a4.13,4.13,0,0,1-2.56-.78,4,4,0,0,1-1.33-1.89l2.41-.87a2,2,0,0,0,2.12,1.26c-.39-1.1-.79-2.19-1.18-3.28l-1.51.1a3.71,3.71,0,0,1-1.77-.3,2.91,2.91,0,0,1-1.33-1.24,4.09,4.09,0,0,1-.61-2.15,3.74,3.74,0,0,1,1.36-2.87,12,12,0,0,1,1.11-.75l.14-.08L184,128Zm4.41,12.24a2.13,2.13,0,0,0,.86-.8,1.4,1.4,0,0,0-.41-1.8,2.79,2.79,0,0,0-1.46-.21Zm-5.32-7.69a7.05,7.05,0,0,0-.71.76,1.27,1.27,0,0,0,.52,1.88,2.72,2.72,0,0,0,1.17.09Z" fill="#fff"></path><path d="M209.35,81.49c-4.26-2.2-13.18,1.15-13.18,1.15l-2.42,3.83a11.58,11.58,0,1,0,20.58,10.62l1.72-4.19S213.62,83.69,209.35,81.49Z" fill="#000000"></path><path d="M204,103.87a12.14,12.14,0,0,1-5.53-1.35,12.09,12.09,0,0,1-5.2-16.28l2.44-3.87a.55.55,0,0,1,.25-.2c.37-.14,9.18-3.4,13.59-1.13h0c4.41,2.28,6.86,11.35,7,11.73a.58.58,0,0,1,0,.32l-1.72,4.19A12.12,12.12,0,0,1,204,103.87ZM196.5,83.05l-2.33,3.69a11.08,11.08,0,0,0,19.72,10.12l1.64-4c-.35-1.22-2.69-9-6.41-10.94S197.69,82.63,196.5,83.05Z" fill="#231f20"></path><circle cx="205.39" cy="89.17" r="11.58" fill="#000000"></circle><path d="M205.38,101.25a12.08,12.08,0,1,1,3.68-.57A12.28,12.28,0,0,1,205.38,101.25Zm0-23.17a11.12,11.12,0,0,0-9.86,6,11.07,11.07,0,1,0,9.86-6Z" fill="#231f20"></path><path d="M210.26,82.34l-.77,1.5a.14.14,0,0,0,0,.21,5.06,5.06,0,0,1,1.52,2,3.59,3.59,0,0,1,.11,2.56c-.07.23-.16.45-.25.69l-2.32-1.19a1.74,1.74,0,0,0,.15-1.14,6.41,6.41,0,0,0-.34-.86h-.06L206.85,89l.22.19a9.5,9.5,0,0,1,1.52,1.52,3,3,0,0,1,.44,3,3.87,3.87,0,0,1-4.27,2.59c-.51-.07-1-.2-1.53-.31l-.58,1.12L200.52,96l.6-1.15c-.37-.34-.74-.64-1.07-1a4,4,0,0,1-1.16-2.4,4,4,0,0,1,.47-2.26l2.28,1.17a2,2,0,0,0,.53,2.41q.79-1.56,1.59-3.09c-.36-.35-.74-.69-1.1-1.05a3.72,3.72,0,0,1-1-1.5,3,3,0,0,1,0-1.81,4.12,4.12,0,0,1,1.17-1.91,3.72,3.72,0,0,1,3-1,11.65,11.65,0,0,1,1.3.3l.16,0,.8-1.56Zm-6,11.57a2.18,2.18,0,0,0,1.17.08,1.39,1.39,0,0,0,1-1.53,2.77,2.77,0,0,0-.83-1.2Zm2-9.14a7.07,7.07,0,0,0-1,0,1.27,1.27,0,0,0-1,1.66,2.71,2.71,0,0,0,.73.92Z" fill="#fff"></path><path d="M205.87,151c-2.47,4.11.3,13.23.3,13.23l3.66,2.66a11.58,11.58,0,0,0,11.94-19.85l-4.07-2S208.34,146.92,205.87,151Z" fill="#000000"></path><path d="M215.78,169.08a12,12,0,0,1-6.21-1.73l-3.7-2.69a.45.45,0,0,1-.18-.25c-.12-.39-2.8-9.39-.25-13.64h0c2.56-4.25,11.77-6.1,12.16-6.18a.5.5,0,0,1,.32,0l4.06,2a12.08,12.08,0,0,1-3.26,22.1A12.32,12.32,0,0,1,215.78,169.08ZM206.6,164l3.52,2.56a11.08,11.08,0,0,0,11.39-19l-3.88-1.9c-1.24.27-9.17,2.1-11.33,5.68h0C204.14,154.87,206.25,162.74,206.6,164Z" fill="#231f20"></path><circle cx="213.28" cy="155.48" r="11.58" fill="#000000"></circle><path d="M213.26,167.56a12.08,12.08,0,1,1,6.24-22.44h0a12.08,12.08,0,0,1-6.24,22.44Zm0-23.16A11.07,11.07,0,1,0,219,146h0A11.06,11.06,0,0,0,213.29,144.4Z" fill="#231f20"></path><path d="M206.78,150.18c.48.29,1,.57,1.45.87a.14.14,0,0,0,.21,0,5.19,5.19,0,0,1,2.06-1.39,3.61,3.61,0,0,1,2.57.06l.67.3-1.34,2.23a1.79,1.79,0,0,0-1.13-.22,7,7,0,0,0-.88.29v.05l2.78,1.68.2-.21a9.17,9.17,0,0,1,1.62-1.42,3,3,0,0,1,3-.24,3.88,3.88,0,0,1,2.08,2,3.93,3.93,0,0,1,.23,2.39c-.11.5-.27,1-.41,1.5l1.08.66-1.24,2.05-1.11-.67c-.36.35-.69.69-1,1a4,4,0,0,1-2.48,1,3.9,3.9,0,0,1-2.22-.61l1.32-2.2a2,2,0,0,0,2.44-.37l-3-1.79-1.11,1a3.81,3.81,0,0,1-1.56.89,3,3,0,0,1-1.81-.12,4.2,4.2,0,0,1-1.84-1.29,3.75,3.75,0,0,1-.75-3.08,11.09,11.09,0,0,1,.38-1.28,1.42,1.42,0,0,1,0-.16l-1.5-.9Zm11.16,6.7a2.08,2.08,0,0,0,.15-1.17,1.39,1.39,0,0,0-1.45-1.13,2.78,2.78,0,0,0-1.26.76Zm-9-2.59a7.39,7.39,0,0,0-.07,1,1.29,1.29,0,0,0,1.6,1.14,2.87,2.87,0,0,0,1-.67Z" fill="#fff"></path><path d="M212.91,210.78c-1.21-3.35-3.38-8.07-6.41-9.68-4.87-2.61-15.21,1.11-15.21,1.11l-2.84,4.37a12.93,12.93,0,0,0-1.4,4.2Z" fill="#000000"></path><path d="M212.91,211.28H187.05a.52.52,0,0,1-.5-.58,14.18,14.18,0,0,1,1.45-4.36l2.88-4.41a.44.44,0,0,1,.25-.19c.43-.16,10.6-3.76,15.61-1.08,3.11,1.66,5.33,6.33,6.64,10a.48.48,0,0,1-.06.45A.49.49,0,0,1,212.91,211.28Zm-25.26-1h24.54c-1.72-4.53-3.81-7.62-5.92-8.74-4.31-2.3-13.35.64-14.65,1.08l-2.76,4.23A12.58,12.58,0,0,0,187.65,210.28Z" fill="#231f20"></path><path d="M215.12,210.78a13.34,13.34,0,1,0-26.61,0Z" fill="#000000"></path><path d="M215.12,211.28H188.51a.51.51,0,0,1-.5-.47,13.84,13.84,0,1,1,27.61,0A.51.51,0,0,1,215.12,211.28Zm-26.13-1h25.65a12.85,12.85,0,0,0-6.78-11.73A12.81,12.81,0,0,0,189,210.28Z" fill="#231f20"></path><path d="M198.68,209.22l1.25,1.22-.18.34h4.95c-.3-.31-.62-.6-.95-.88l-.25-.22c.6-1.11,1.18-2.21,1.76-3.3h.07a8.58,8.58,0,0,1,.38,1,2,2,0,0,1-.19,1.3l2.65,1.42c.1-.27.21-.53.3-.79a4.19,4.19,0,0,0-.08-3,5.91,5.91,0,0,0-1.72-2.29c-.1-.08-.11-.13,0-.24l.92-1.72-2.44-1.3-.95,1.78-.18,0a13.13,13.13,0,0,0-1.5-.37,4.28,4.28,0,0,0-3.5,1,4.88,4.88,0,0,0-1.38,2.18,3.42,3.42,0,0,0,0,2.1A4.25,4.25,0,0,0,198.68,209.22Zm3.07-4.41a7.85,7.85,0,0,1,1.18,0l-1.57,2.95a3.29,3.29,0,0,1-.83-1.07A1.48,1.48,0,0,1,201.75,204.81Z" fill="#fff"></path><path d="M223.4,211.28H179.9a.5.5,0,0,1-.5-.5.5.5,0,0,1,.5-.5h43.5a.5.5,0,0,1,.5.5A.51.51,0,0,1,223.4,211.28Z" fill="#231f20"></path></g></svg>