<svg id="_190_seo_flatline" data-name="#190_seo_flatline" xmlns="http://www.w3.org/2000/svg" viewBox="0 0 400 300" width="406" height="306" class="illustration styles_illustrationTablet__1DWOa"><path d="M326.62,219.1H42.33a.51.51,0,0,1-.5-.5.5.5,0,0,1,.5-.5H326.62a.5.5,0,0,1,.5.5A.51.51,0,0,1,326.62,219.1Z" fill="#d1d3d4"></path><path d="M252.18,191.27,247,233.62H160.67s-1.11-5.28,3.8-6.34c8.81-1.9,12.31-3.55,16.63-7.87,8-8,7.35-28,7.35-28Z" fill="#fff"></path><path d="M247,234.12H160.67a.49.49,0,0,1-.49-.4c0-.06-1.14-5.78,4.19-6.93,8.74-1.88,12.11-3.47,16.37-7.73,7.73-7.72,7.21-27.43,7.21-27.62a.47.47,0,0,1,.14-.37.51.51,0,0,1,.35-.15l63.74-.15h0a.52.52,0,0,1,.38.17.51.51,0,0,1,.12.39l-5.18,42.35A.5.5,0,0,1,247,234.12Zm-85.9-1h85.46l5.06-41.35-62.66.15c0,3.26-.09,20.44-7.51,27.85-4.38,4.37-8,6.09-16.87,8C160.92,228.56,161,231.94,161.1,233.12Z" fill="#231f20"></path><path d="M328.71,185.64,330,169.11l9-115.9a5.24,5.24,0,0,0-5.27-5.78h-212a6.32,6.32,0,0,0-6.17,5.78L105.24,185.64a5.24,5.24,0,0,0,5.27,5.78h212A6.33,6.33,0,0,0,328.71,185.64Z" fill="#231f20"></path><path d="M322.54,191.92h-212a5.71,5.71,0,0,1-4.25-1.83,5.85,5.85,0,0,1-1.52-4.49L115,53.17a6.83,6.83,0,0,1,6.66-6.24h212a5.74,5.74,0,0,1,4.25,1.82,5.88,5.88,0,0,1,1.52,4.5L329.2,185.68A6.83,6.83,0,0,1,322.54,191.92Zm-200.9-144A5.82,5.82,0,0,0,116,53.25L105.74,185.68a4.84,4.84,0,0,0,1.25,3.73,4.74,4.74,0,0,0,3.52,1.51h212a5.83,5.83,0,0,0,5.67-5.32h0L338.44,53.17a4.86,4.86,0,0,0-1.25-3.74,4.73,4.73,0,0,0-3.52-1.5Z" fill="#231f20"></path><path d="M321.87,169.11H98.41l9-115.9a6.3,6.3,0,0,1,6.16-5.78h212a5.24,5.24,0,0,1,5.27,5.78Z" fill="#d1d3d4"></path><path d="M321.88,169.61H98.41a.5.5,0,0,1-.5-.54l9-115.9a6.83,6.83,0,0,1,6.66-6.24h212a5.74,5.74,0,0,1,4.25,1.82,5.87,5.87,0,0,1,1.52,4.49l-9,115.91A.49.49,0,0,1,321.88,169.61ZM99,168.61H321.41l8.92-115.44a4.86,4.86,0,0,0-1.25-3.74,4.73,4.73,0,0,0-3.52-1.5h-212a5.82,5.82,0,0,0-5.67,5.32Z" fill="#231f20"></path><polygon points="315.93 162.53 105.37 162.53 113.65 55.36 324.21 55.36 315.93 162.53" fill="#fff"></polygon><path d="M315.93,163H105.37a.52.52,0,0,1-.37-.16.53.53,0,0,1-.13-.38l8.29-107.17a.49.49,0,0,1,.49-.46H324.21a.51.51,0,0,1,.37.16.52.52,0,0,1,.13.38l-8.28,107.16A.5.5,0,0,1,315.93,163Zm-210-1H315.47l8.2-106.17H114.12Z" fill="#231f20"></path><path d="M314.43,191.42h-212a5.26,5.26,0,0,1-5.28-5.78l1.28-16.53H321.87l-1.27,16.53A6.33,6.33,0,0,1,314.43,191.42Z" fill="#fff"></path><path d="M314.43,191.92h-212a5.72,5.72,0,0,1-4.26-1.83,5.85,5.85,0,0,1-1.52-4.49l1.28-16.53a.5.5,0,0,1,.5-.46H321.88a.5.5,0,0,1,.36.16.49.49,0,0,1,.13.38l-1.27,16.53A6.84,6.84,0,0,1,314.43,191.92ZM98.87,169.61l-1.24,16.07a4.92,4.92,0,0,0,1.25,3.74,4.74,4.74,0,0,0,3.53,1.5h212a5.83,5.83,0,0,0,5.67-5.32l1.23-16Z" fill="#231f20"></path><path d="M241.22,79.66h-48.1a1.5,1.5,0,0,1,0-3h48.1a1.5,1.5,0,0,1,0,3Z" fill="#d1d3d4"></path><path d="M283.12,120.62H144.73a8.52,8.52,0,0,1-6.35-2.73,8.74,8.74,0,0,1-2.27-6.72l.46-5.88a10.25,10.25,0,0,1,10-9.37H285a8.52,8.52,0,0,1,6.35,2.73,8.77,8.77,0,0,1,2.27,6.71l-.46,5.89A10.26,10.26,0,0,1,283.12,120.62ZM146.56,96.92a9.24,9.24,0,0,0-9,8.44l-.45,5.89a7.73,7.73,0,0,0,2,6,7.55,7.55,0,0,0,5.62,2.41H283.12a9.25,9.25,0,0,0,9-8.45l.45-5.88a7.81,7.81,0,0,0-2-6A7.57,7.57,0,0,0,285,96.92Z" fill="#d1d3d4"></path><path d="M266,120.62h0a.5.5,0,0,1-.46-.53l1.83-23.7a.5.5,0,0,1,1,.08l-1.83,23.69A.5.5,0,0,1,266,120.62Z" fill="#d1d3d4"></path><path d="M281.61,112.58a5.34,5.34,0,0,1-4-1.7,5.46,5.46,0,0,1-1.41-4.18,6.36,6.36,0,0,1,6.2-5.81,5.32,5.32,0,0,1,4,1.7,5.44,5.44,0,0,1,1.41,4.18A6.35,6.35,0,0,1,281.61,112.58Zm.82-10.69a5.33,5.33,0,0,0-5.2,4.88,4.4,4.4,0,0,0,1.15,3.43,4.33,4.33,0,0,0,3.23,1.38,5.35,5.35,0,0,0,5.21-4.88h0a4.49,4.49,0,0,0-1.15-3.43A4.37,4.37,0,0,0,282.43,101.89Z" fill="#d1d3d4"></path><path d="M271.09,115.65a.51.51,0,0,1-.4-.2.5.5,0,0,1,.09-.7l6.58-5a.5.5,0,0,1,.61.79l-6.58,5A.49.49,0,0,1,271.09,115.65Z" fill="#d1d3d4"></path><path d="M285.44,131.48H143a.5.5,0,0,1-.5-.5.5.5,0,0,1,.5-.5h142.4a.5.5,0,0,1,.5.5A.5.5,0,0,1,285.44,131.48Z" fill="#d1d3d4"></path><path d="M285,137.16H142.6a.5.5,0,0,1-.5-.5.5.5,0,0,1,.5-.5H285a.5.5,0,0,1,.5.5A.5.5,0,0,1,285,137.16Z" fill="#d1d3d4"></path><path d="M262.08,142.83H142.16a.5.5,0,0,1-.5-.5.5.5,0,0,1,.5-.5H262.08a.5.5,0,0,1,.5.5A.5.5,0,0,1,262.08,142.83Z" fill="#d1d3d4"></path><path d="M208.81,186.87a6,6,0,0,1-4.47-1.92,6.18,6.18,0,0,1-1.6-4.72,7.19,7.19,0,0,1,7-6.56,6,6,0,0,1,4.47,1.91,6.18,6.18,0,0,1,1.6,4.72h0A7.2,7.2,0,0,1,208.81,186.87Zm.94-12.2a6.17,6.17,0,0,0-6,5.63,5.17,5.17,0,0,0,1.33,4,5,5,0,0,0,3.74,1.6,6.17,6.17,0,0,0,6-5.64,5.19,5.19,0,0,0-1.33-4A5,5,0,0,0,209.75,174.67Zm5.57,5.6h0Z" fill="#d1d3d4"></path><path d="M248.36,191.27s-3.74,21-8.13,29c-2.56,4.63-10.34,6.38-15.14,8.55-2.86,1.28-2.58,4.84-2.58,4.84H247l5.18-42.35Z" fill="#231f20"></path><path d="M247,234.12H222.51a.5.5,0,0,1-.5-.46c0-.16-.27-3.93,2.87-5.34,1.17-.52,2.48-1,3.88-1.54,4.3-1.61,9.17-3.43,11-6.79,4.3-7.8,8-28.6,8.08-28.81a.5.5,0,0,1,.49-.41h3.82a.5.5,0,0,1,.38.17.51.51,0,0,1,.12.39l-5.18,42.35A.5.5,0,0,1,247,234.12Zm-24-1h23.55l5.06-41.35h-2.84c-.57,3.06-4,21.28-8.12,28.7-2,3.68-7.09,5.58-11.55,7.25-1.38.51-2.68,1-3.82,1.51A4.31,4.31,0,0,0,223,233.12Z" fill="#231f20"></path><path d="M145.51,146.58a25.42,25.42,0,0,1,8.38-.69c4.62.39,6.87-2.22,7-4.27s-4-4.33-7-4.23-10.44,3.76-10.44,3.76Z" fill="#fff"></path><path d="M145.51,147.08a.49.49,0,0,1-.47-.32l-2-5.44a.48.48,0,0,1,.24-.62c.31-.15,7.56-3.7,10.64-3.81a9.61,9.61,0,0,1,6.46,2.55,3,3,0,0,1,1,2.2,4.51,4.51,0,0,1-1.65,3.15,7.55,7.55,0,0,1-5.87,1.6,25.4,25.4,0,0,0-8.19.67A.36.36,0,0,1,145.51,147.08Zm-1.43-5.68,1.74,4.58a26.77,26.77,0,0,1,8.11-.59,6.63,6.63,0,0,0,5.13-1.35,3.6,3.6,0,0,0,1.3-2.45,2.16,2.16,0,0,0-.74-1.45,8.68,8.68,0,0,0-5.72-2.25C151.43,138,145.67,140.64,144.08,141.4Z" fill="#231f20"></path><path d="M119.85,111.17s6.91,27.6,8.94,28.4,18.38-1.46,18.38-1.46l-1,9.76s-18.36,8.06-24.33,3.56-22.15-25.89-22.15-25.89Z" fill="#000000"></path><polygon points="151.04 145 160.06 149.7 169.51 131.21 160.49 126.51 151.04 145" fill="#231f20"></polygon><path d="M160.06,150.2a.64.64,0,0,1-.23,0l-9-4.71a.49.49,0,0,1-.21-.67L160,126.28a.5.5,0,0,1,.3-.25.51.51,0,0,1,.38,0l9,4.7a.51.51,0,0,1,.22.67l-9.45,18.49a.51.51,0,0,1-.29.25A.41.41,0,0,1,160.06,150.2Zm-8.35-5.41,8.14,4.24,9-17.6-8.13-4.24Z" fill="#231f20"></path><polyline points="158.7 131.64 192.78 64.94 199.7 68.54" fill="#231f20"></polyline><path d="M158.7,132.14a.46.46,0,0,1-.22-.06.49.49,0,0,1-.22-.67l34.08-66.7a.48.48,0,0,1,.29-.25.5.5,0,0,1,.38,0l6.92,3.61a.5.5,0,0,1,.21.67.49.49,0,0,1-.67.21L193,65.61l-33.85,66.26A.5.5,0,0,1,158.7,132.14Z" fill="#231f20"></path><ellipse cx="182.66" cy="101.89" rx="37.45" ry="30.23" transform="translate(10.65 220.89) rotate(-63.83)" fill="#231f20"></ellipse><path d="M177.32,138.55a25.73,25.73,0,0,1-11.93-2.86c-15-7.83-19.5-29.37-10-48,5.23-10.25,13.81-17.91,23.54-21a27.18,27.18,0,0,1,21,1.42c15,7.83,19.5,29.36,10,48-5.24,10.25-13.82,17.9-23.54,21A29.89,29.89,0,0,1,177.32,138.55ZM188,66.24a28.9,28.9,0,0,0-8.75,1.39c-9.47,3-17.83,10.5-22.95,20.51h0c-9.27,18.15-5,39.08,9.55,46.66a26.26,26.26,0,0,0,20.22,1.36c9.47-3,17.83-10.5,23-20.52,9.27-18.14,5-39.08-9.55-46.66A24.81,24.81,0,0,0,188,66.24ZM155.85,87.92h0Z" fill="#231f20"></path><ellipse cx="175.74" cy="98.29" rx="37.45" ry="30.23" transform="translate(10.02 212.67) rotate(-63.83)" fill="#fff"></ellipse><path d="M170.41,135a25.63,25.63,0,0,1-11.94-2.87c-15-7.83-19.5-29.36-10-48h0c5.24-10.25,13.82-17.9,23.54-21a27.22,27.22,0,0,1,21,1.42c15,7.83,19.5,29.37,10,48-5.23,10.25-13.81,17.91-23.54,21A29.59,29.59,0,0,1,170.41,135Zm-21-50.41c-9.27,18.14-5,39.08,9.56,46.66a26.19,26.19,0,0,0,20.21,1.35c9.47-3,17.84-10.5,22.95-20.51,9.27-18.15,5-39.08-9.55-46.66A26.24,26.24,0,0,0,172.34,64c-9.47,3-17.84,10.5-23,20.52Z" fill="#231f20"></path><ellipse cx="175.74" cy="98.29" rx="29.64" ry="23.92" transform="translate(10.02 212.67) rotate(-63.83)" fill="#fff"></ellipse><path d="M171.52,127.4a20.35,20.35,0,0,1-9.49-2.28c-11.94-6.22-15.5-23.32-7.94-38.12,4.15-8.14,11-14.21,18.68-16.68a21.66,21.66,0,0,1,16.69,1.13c11.94,6.22,15.5,23.33,7.94,38.12-4.16,8.14-11,14.22-18.69,16.68A23.53,23.53,0,0,1,171.52,127.4ZM180,70.15a23,23,0,0,0-6.93,1.12C165.61,73.66,159,79.56,155,87.46h0c-7.31,14.3-3.94,30.8,7.51,36.78a20.37,20.37,0,0,0,15.92,1.06c7.47-2.38,14.06-8.28,18.1-16.18,7.31-14.31,3.94-30.81-7.52-36.78A19.16,19.16,0,0,0,180,70.15ZM154.53,87.23h0Z" fill="#231f20"></path><path d="M154.53,87.23c-7.44,14.58-4,31.34,7.73,37.45a18.68,18.68,0,0,0,2.34,1c-9.94-7-12.5-22.5-5.54-36.12s21-20.51,32.35-16.37a18.5,18.5,0,0,0-2.19-1.33C177.51,65.79,162,72.65,154.53,87.23Z" fill="#231f20"></path><path d="M164.6,126.21a.47.47,0,0,1-.17,0,18.63,18.63,0,0,1-2.41-1.06c-11.93-6.22-15.49-23.32-7.93-38.12,4.16-8.14,11-14.22,18.69-16.68a21.61,21.61,0,0,1,16.67,1.13,18,18,0,0,1,2.25,1.37.5.5,0,0,1,.15.64.49.49,0,0,1-.61.23c-11.3-4.11-24.94,2.82-31.74,16.13s-4.49,28.56,5.38,35.48a.49.49,0,0,1,.16.64A.5.5,0,0,1,164.6,126.21ZM180,70.15a22.75,22.75,0,0,0-6.93,1.12C165.61,73.66,159,79.56,155,87.46c-7.06,13.82-4.16,29.68,6.36,36.13-7.71-8-9-21.91-2.73-34.23S176.94,70,187.83,71.78A19.36,19.36,0,0,0,180,70.15Z" fill="#231f20"></path><path d="M124.62,202.07l4.7,2.46a4.69,4.69,0,0,0,6.35-2.05l25.74-50.38a4.79,4.79,0,0,0-2-6.41l-4.71-2.45a4.68,4.68,0,0,0-6.34,2l-25.74,50.38A4.78,4.78,0,0,0,124.62,202.07Z" fill="#fff"></path><path d="M131.48,205.56a5.18,5.18,0,0,1-2.39-.59l-4.7-2.45h0a5.29,5.29,0,0,1-2.24-7.08l25.73-50.39a5.2,5.2,0,0,1,7-2.26l4.7,2.46a5.28,5.28,0,0,1,2.24,7.08l-25.73,50.38a5.21,5.21,0,0,1-3.06,2.6A5.06,5.06,0,0,1,131.48,205.56Zm-6.63-3.93,4.71,2.45a4.17,4.17,0,0,0,5.66-1.83L161,151.87a4.28,4.28,0,0,0-1.81-5.74l-4.71-2.45a4.12,4.12,0,0,0-3.19-.28,4.25,4.25,0,0,0-2.48,2.11L123,195.89a4.28,4.28,0,0,0,1.81,5.74Z" fill="#231f20"></path><path d="M163.15,100.81a6.72,6.72,0,0,1-1.28-.66,6.12,6.12,0,0,1-1.07-.88,6.28,6.28,0,0,1-.83-1,5.15,5.15,0,0,1-.56-1.16l3.84-1.93a3.58,3.58,0,0,0,.6,1.27,2.67,2.67,0,0,0,1.17.91,1.45,1.45,0,0,0,.65.09.62.62,0,0,0,.52-.36.54.54,0,0,0,.07-.34.88.88,0,0,0-.17-.38,3.23,3.23,0,0,0-.46-.53c-.2-.21-.46-.46-.78-.76a6.66,6.66,0,0,1-.82-.94,3.45,3.45,0,0,1-.55-1.08,3.36,3.36,0,0,1-.09-1.28,4.52,4.52,0,0,1,.54-1.54,5.58,5.58,0,0,1,1.52-1.85,5.51,5.51,0,0,1,1.84-.93,5.33,5.33,0,0,1,1.94-.17,6.94,6.94,0,0,1,1.81.41,5.68,5.68,0,0,1,2,1.36,5.38,5.38,0,0,1,1.28,2.19L170.51,93a2.29,2.29,0,0,0-.5-1.18,2.06,2.06,0,0,0-.86-.66,1.61,1.61,0,0,0-.74-.13.62.62,0,0,0-.49.34.45.45,0,0,0,0,.54,5.47,5.47,0,0,0,.66.68c.33.3.66.63,1,1a4.91,4.91,0,0,1,.84,1.22,3.61,3.61,0,0,1,.33,1.48,3.89,3.89,0,0,1-.52,1.79,6,6,0,0,1-1.49,1.84,5.63,5.63,0,0,1-1.84,1,5.42,5.42,0,0,1-1.95.27A5.85,5.85,0,0,1,163.15,100.81Z" fill="#000000"></path><path d="M176.35,90.13l7.79,3-1.92,3.55L178,95.06l-.59,1.09,3.95,1.52L179.59,101l-4-1.53-.64,1.19,4.48,1.72-1.92,3.55-8.06-3.1Z" fill="#000000"></path><path d="M182.1,99.92a9.35,9.35,0,0,1,2-2.57,8.26,8.26,0,0,1,2.45-1.58A7.33,7.33,0,0,1,192,95.7a6.29,6.29,0,0,1,2.25,1.43,5.22,5.22,0,0,1,1.28,2.09,5.87,5.87,0,0,1,.2,2.6,8.69,8.69,0,0,1-1,2.94,10,10,0,0,1-2,2.59,8.3,8.3,0,0,1-2.49,1.63,7.43,7.43,0,0,1-2.74.61,7.22,7.22,0,0,1-2.75-.48,6.14,6.14,0,0,1-2.24-1.44,5.28,5.28,0,0,1-1.25-2.14,6.27,6.27,0,0,1-.16-2.65A8.64,8.64,0,0,1,182.1,99.92Zm4,1.55a4.61,4.61,0,0,0-.45,1.21,3,3,0,0,0,0,1.08,1.9,1.9,0,0,0,.4.86,1.94,1.94,0,0,0,.78.55,2.27,2.27,0,0,0,1,.13,2.66,2.66,0,0,0,1-.31,3.73,3.73,0,0,0,1-.71,4.9,4.9,0,0,0,.78-1.08,4.13,4.13,0,0,0,.44-1.19,2.42,2.42,0,0,0,0-1,1.89,1.89,0,0,0-.42-.82,1.83,1.83,0,0,0-.78-.54,2.41,2.41,0,0,0-1-.15,3,3,0,0,0-1,.27,3.41,3.41,0,0,0-.92.69A4.42,4.42,0,0,0,186.14,101.47Z" fill="#000000"></path><path d="M166.88,119.92a.5.5,0,0,1-.16-1l17.26-5.6a.5.5,0,0,1,.31,1L167,119.9A.39.39,0,0,1,166.88,119.92Z" fill="#d1d3d4"></path><path d="M173.47,83.38A.5.5,0,0,1,173,83a.49.49,0,0,1,.34-.61c6.24-1.74,15.73-4.42,16.32-4.69a.5.5,0,0,1,.42.9c-.81.38-14.87,4.3-16.47,4.75Z" fill="#d1d3d4"></path><path d="M161.65,108.77a.49.49,0,0,1-.47-.32.5.5,0,0,1,.29-.65l7.85-3a.5.5,0,1,1,.35.94l-7.85,3A.51.51,0,0,1,161.65,108.77Z" fill="#d1d3d4"></path><path d="M188.38,94.13a.5.5,0,0,1-.48-.36.49.49,0,0,1,.34-.62l9-2.61a.51.51,0,0,1,.62.34.49.49,0,0,1-.34.62l-9,2.61Z" fill="#d1d3d4"></path><path d="M70.76,242.44s-2.21,3.43-1.82,3.69,10.82,4.35,10,5.54-16,.65-22.69-1.72l3.78-10.67" fill="#fff"></path><path d="M73.94,252.78c-5.55,0-13.84-.94-17.82-2.36a.49.49,0,0,1-.3-.63l3.78-10.67a.51.51,0,0,1,.64-.31.5.5,0,0,1,.3.64l-3.61,10.19c6.67,2.18,19.64,2.49,21.5,1.79-.57-.69-3.4-2.12-8.41-4.27a14.31,14.31,0,0,1-1.36-.61c-.36-.24-.8-.54,1.68-4.38A.51.51,0,0,1,71,242a.5.5,0,0,1,.15.7,21.88,21.88,0,0,0-1.74,3.1l1,.42c6.32,2.71,8.78,4.07,9.07,5a.74.74,0,0,1-.09.65C79,252.52,76.85,252.78,73.94,252.78Z" fill="#231f20"></path><path d="M107.17,242.71l2.48,9.22s13.69,1.45,22.3,0c0-4.78-7.44-5.27-12.39-6.19l-2.87-4.48Z" fill="#fff"></path><path d="M122.36,253.07c-6.59,0-12.67-.63-12.76-.64a.5.5,0,0,1-.43-.37l-2.48-9.22a.49.49,0,0,1,.06-.41.59.59,0,0,1,.35-.22l9.51-1.45a.5.5,0,0,1,.5.23l2.75,4.3,1.84.31c4.79.78,10.75,1.76,10.75,6.33a.5.5,0,0,1-.42.49A60.35,60.35,0,0,1,122.36,253.07ZM110,251.46c2.13.21,13.68,1.23,21.38,0-.38-3.37-5.42-4.19-9.88-4.93-.72-.11-1.42-.23-2.07-.35a.52.52,0,0,1-.33-.22l-2.7-4.21-8.64,1.32Z" fill="#231f20"></path><path d="M65,151.43s-2.8,15.14-.62,27.79S74.93,201.08,72.07,209s-14.45,31.94-14.45,31.94l13.56,3.16s19.92-25.38,21-32.61-6.52-29.73-6.52-29.73Z" fill="#231f20"></path><path d="M71.18,244.59h-.11l-13.56-3.16a.55.55,0,0,1-.34-.27.56.56,0,0,1,0-.44c.12-.24,11.6-24.1,14.43-31.89,1.6-4.43-.52-9.44-3-15.23a64.59,64.59,0,0,1-4.72-14.29c-2.17-12.59.59-27.81.62-28a.5.5,0,0,1,.39-.4.51.51,0,0,1,.52.21L86,181.47a.52.52,0,0,1,.06.13c.31.92,7.59,22.68,6.54,30S72.39,243.36,71.58,244.4A.51.51,0,0,1,71.18,244.59Zm-12.84-4L71,243.53c2.06-2.65,19.7-25.48,20.66-32.12,1-6.85-6-28.09-6.48-29.43L65.31,152.75c-.6,3.84-2.2,16-.41,26.38a63.82,63.82,0,0,0,4.65,14.07c2.53,6,4.73,11.16,3,16C69.94,216.32,60.1,236.91,58.34,240.58Z" fill="#231f20"></path><path d="M102.58,161.3s8.37,39,10.2,47.69,7.13,35.1,7.13,35.1H105.74s-11.57-32.47-16.27-37-14.77-23-19.2-33.08-2.08-22.63-2.08-22.63Z" fill="#231f20"></path><path d="M119.91,244.59H105.74a.5.5,0,0,1-.47-.33c-.12-.32-11.59-32.41-16.14-36.76-4.74-4.52-14.83-23-19.32-33.24s-2.14-22.79-2.12-22.92a.49.49,0,0,1,.23-.33.48.48,0,0,1,.4-.06l34.39,9.87a.51.51,0,0,1,.36.38c.08.39,8.39,39.09,10.2,47.68s7.08,34.85,7.13,35.11a.53.53,0,0,1-.1.42A.53.53,0,0,1,119.91,244.59Zm-13.82-1H119.3c-.8-4-5.36-26.64-7-34.5-1.72-8.2-9.36-43.78-10.14-47.39l-33.56-9.63c-.38,2.5-1.66,13.11,2.14,21.79,4.46,10.17,14.43,28.48,19.09,32.92S104.79,240,106.09,243.59Z" fill="#231f20"></path><path d="M112.91,97.71c-1-.41-2-1-3.18-1.5s-2.39-1.44-2-2.58c.32-1,1.76-1.38,1.83-2.41a2.34,2.34,0,0,0-.15-.83,11.44,11.44,0,0,1,.65-8.31,11.23,11.23,0,0,1,6.17-5.53c-.35,0-.58-.44-.49-.79a1.39,1.39,0,0,1,.68-.79,6.89,6.89,0,0,1,3.8-.82,20.91,20.91,0,0,1,11.7,4.17c2.63,1.9,5.32,5.5,3.69,8.93A3,3,0,0,1,132.28,89c-2,3.58-4.87,5.49-8.32,7.37a15.93,15.93,0,0,1-7.61,2A8.81,8.81,0,0,1,112.91,97.71Z" fill="#fff"></path><path d="M116.36,98.9h0a9.29,9.29,0,0,1-3.63-.72c-.61-.25-1.2-.54-1.82-.85-.44-.22-.89-.44-1.38-.66-1.81-.83-2.67-2-2.29-3.2a3.15,3.15,0,0,1,1.07-1.33c.39-.33.72-.61.74-1a1.5,1.5,0,0,0-.11-.58,11.89,11.89,0,0,1,.67-8.74,11.7,11.7,0,0,1,5.69-5.48,1.25,1.25,0,0,1-.06-.74,1.82,1.82,0,0,1,.9-1.09,7.4,7.4,0,0,1,4.08-.9,21.63,21.63,0,0,1,12,4.26c3.1,2.25,5.49,6.08,3.84,9.55a3.55,3.55,0,0,1-3.51,2.09c-2.13,3.65-5.28,5.58-8.34,7.25A16.4,16.4,0,0,1,116.36,98.9Zm3.56-24.25a6,6,0,0,0-3.26.74,1,1,0,0,0-.46.49.28.28,0,0,0,0,.18.47.47,0,0,1,.47.41.5.5,0,0,1-.34.55,10.71,10.71,0,0,0-5.89,5.28,10.92,10.92,0,0,0-.63,7.94,2.57,2.57,0,0,1,.18,1A2.41,2.41,0,0,1,109,92.9a2.38,2.38,0,0,0-.77.88c-.31,1,1.41,1.82,1.76,2l1.4.68c.61.3,1.18.58,1.76.82h0a8.27,8.27,0,0,0,3.25.65h0a15.46,15.46,0,0,0,7.36-2c3.77-2,6.31-3.89,8.12-7.18a.51.51,0,0,1,.59-.23A2.49,2.49,0,0,0,135.14,87c1.6-3.37-1.47-6.81-3.53-8.31a20.56,20.56,0,0,0-11.42-4.07Z" fill="#231f20"></path><path d="M131.36,94.9s1.14,5.45.2,6.11-2.65-.71-2.65-.71" fill="#fff"></path><path d="M131,101.69a4.46,4.46,0,0,1-2.35-1,.5.5,0,0,1-.08-.7.52.52,0,0,1,.71-.08c.44.36,1.58,1,2,.69s.15-3-.4-5.6a.5.5,0,0,1,1-.2c.45,2.15,1.05,5.88,0,6.62A1.58,1.58,0,0,1,131,101.69Z" fill="#231f20"></path><path d="M133,89c1.22,2.2-.53,5.13-1.34,7.16q-1.72,4.29-3.63,8.5c-.81,1.78-5.48,0-6.09-.91l-2.08,7.47-8.31-7.7,2.72-5.78S117.42,99,120.69,96s6.16-11.13,6.16-11.13S131.8,86.8,133,89Z" fill="#fff"></path><path d="M119.85,111.67a.51.51,0,0,1-.34-.13l-8.31-7.71a.49.49,0,0,1-.11-.58l2.72-5.78a.5.5,0,0,1,.64-.25c.11,0,2.93,1.12,5.91-1.59,3.14-2.86,6-10.85,6-10.93a.51.51,0,0,1,.27-.29.48.48,0,0,1,.39,0c.21.08,5.12,2,6.39,4.31h0c1.13,2,0,4.52-.85,6.5-.17.38-.33.75-.47,1.09-1.14,2.86-2.37,5.72-3.64,8.52a1.86,1.86,0,0,1-1.68,1,8.72,8.72,0,0,1-4.59-1.29l-1.87,6.74a.51.51,0,0,1-.35.35A.3.3,0,0,1,119.85,111.67Zm-7.7-8.32,7.43,6.9,1.86-6.69a.54.54,0,0,1,.4-.36.51.51,0,0,1,.49.21,7.3,7.3,0,0,0,4.36,1.44q.7-.06.87-.45c1.27-2.78,2.48-5.63,3.62-8.47.14-.35.31-.73.48-1.12.8-1.79,1.78-4,.89-5.62h0c-.81-1.47-3.84-3-5.41-3.66-.68,1.83-3.22,8.2-6.11,10.84a7,7,0,0,1-6.5,1.92Z" fill="#231f20"></path><path d="M128.79,102.44a2.48,2.48,0,0,1-3-2.27" fill="#fff"></path><path d="M128.32,103a3.25,3.25,0,0,1-1.94-.59,3,3,0,0,1-1.1-2.18.5.5,0,0,1,1-.09,2,2,0,0,0,.7,1.46,2.48,2.48,0,0,0,1.72.37.51.51,0,0,1,.58.41.5.5,0,0,1-.4.58A4.33,4.33,0,0,1,128.32,103Z" fill="#231f20"></path><path d="M125.19,94.56a4.21,4.21,0,0,0,0-2.28,6.17,6.17,0,0,0-.52-1.71,2,2,0,0,0-1.35-1.09,1.85,1.85,0,0,0-1.46.45,3.65,3.65,0,0,0-.91,1.28,6.67,6.67,0,0,0,.68,6.58l-.09-.23" fill="#fff"></path><path d="M121.61,98.29a.51.51,0,0,1-.41-.2,7.26,7.26,0,0,1-.73-7.09,4.2,4.2,0,0,1,1-1.46,2.34,2.34,0,0,1,1.87-.55,2.47,2.47,0,0,1,1.7,1.34,6.67,6.67,0,0,1,.57,1.85,4.63,4.63,0,0,1,0,2.56.5.5,0,0,1-.93-.35,3.84,3.84,0,0,0,0-2,5.8,5.8,0,0,0-.47-1.58,1.52,1.52,0,0,0-1-.82,1.35,1.35,0,0,0-1.06.33,3.19,3.19,0,0,0-.78,1.11,6.22,6.22,0,0,0,.38,5.7.44.44,0,0,1,.22.26l.09.23a.5.5,0,0,1-.22.62A.53.53,0,0,1,121.61,98.29Z" fill="#231f20"></path><ellipse cx="131.4" cy="92.33" rx="1.1" ry="0.43" transform="translate(2.62 188.29) rotate(-71.79)" fill="#231f20"></ellipse><path d="M108.87,104.45l2.07-2.84,12.24,5.74-.48,5.24A26.5,26.5,0,0,1,108.87,104.45Z" fill="#231f20"></path><path d="M122.7,113.09h-.08a26.7,26.7,0,0,1-14.12-8.29.51.51,0,0,1,0-.64l2.08-2.83a.49.49,0,0,1,.61-.16l12.24,5.73a.5.5,0,0,1,.28.5l-.47,5.24a.48.48,0,0,1-.19.35A.51.51,0,0,1,122.7,113.09Zm-13.19-8.68A26.67,26.67,0,0,0,122.25,112l.4-4.33-11.55-5.41Z" fill="#231f20"></path><path d="M146.23,155.42a61.39,61.39,0,0,0,5.63,3.38c.91.26,3-1.78,3.91-1s3.95,5.41,3.86,6.06-2.4,5.45-3.79,5a23.43,23.43,0,0,1-4.1-2.43l-9-2.58" fill="#fff"></path><path d="M156,169.39a1.13,1.13,0,0,1-.36-.06,22.26,22.26,0,0,1-4.17-2.45l-8.94-2.55a.5.5,0,1,1,.27-1l9,2.58a.46.46,0,0,1,.16.07,22.84,22.84,0,0,0,4,2.37.46.46,0,0,0,.3-.1c1.16-.7,2.75-3.95,2.84-4.49a25,25,0,0,0-3.69-5.6c-.28-.24-1.12.19-1.73.51a3,3,0,0,1-2,.57,53,53,0,0,1-5.77-3.45.5.5,0,0,1,.55-.83,55.62,55.62,0,0,0,5.5,3.32,3.67,3.67,0,0,0,1.26-.5c1-.49,2-1.06,2.84-.39s4.16,5.54,4,6.51c-.09.65-1.77,4.25-3.29,5.19A1.48,1.48,0,0,1,156,169.39Z" fill="#231f20"></path><path d="M126.56,115.86s-.15,27.84,1.82,28.1,19.46,11.9,19.46,11.9L143,167.38s-23.52-6.79-28.37-10c-2.57-1.72-3.29-31.81-3.29-31.81Z" fill="#000000"></path><path d="M125.78,114.08c-5.93-5.77-13.71-15-28.58-9s-35.94,49.28-35.94,49.28l45.91,10.23S131.31,119.46,125.78,114.08Z" fill="#000000"></path><path d="M113.72,155.92a.5.5,0,0,1-.49-.46c0-.17-1.62-17.58-2.37-29.89a.5.5,0,1,1,1-.06c.75,12.29,2.36,29.69,2.37,29.86a.5.5,0,0,1-.45.55Z" fill="#231f20"></path><path d="M89.47,207.64a.51.51,0,0,1-.4-.2c-.18-.24-18.06-24.08-21.29-40a.5.5,0,0,1,.39-.59.51.51,0,0,1,.59.39c3.18,15.65,20.93,39.32,21.11,39.56a.5.5,0,0,1-.1.7A.47.47,0,0,1,89.47,207.64Z" fill="#fff"></path><path d="M142.71,153.4a.59.59,0,0,1-.23-.05l-16.93-8.6a.5.5,0,0,1-.27-.47c0-.23,1.5-22.46.47-27.8a.51.51,0,0,1,.4-.59.5.5,0,0,1,.58.4c1,5.17-.24,24.82-.43,27.72l16.63,8.44a.5.5,0,0,1-.22,1Z" fill="#231f20"></path><path d="M147.84,139.7s4.74-3.8,6.24-3.69,7.2.9,5.56,2.1-5.75.53-5.75.53.45.51-1.51,1.84" fill="#fff"></path><path d="M152.38,141a.5.5,0,0,1-.28-.92c1.07-.72,1.28-1.12,1.32-1.23a.52.52,0,0,1,0-.42.5.5,0,0,1,.52-.26c1.08.18,4.16.43,5.37-.45l0,0c-.56-.46-3.34-1-5.33-1.17h0c-.95,0-4,2.08-5.84,3.58a.5.5,0,1,1-.63-.78c.82-.66,5-3.94,6.59-3.8,0,0,5.85.44,6.28,2a.94.94,0,0,1-.47,1c-1.43,1-4.36.84-5.58.7a4.36,4.36,0,0,1-1.68,1.68A.52.52,0,0,1,152.38,141Zm1.13-2h0Zm0,0Z" fill="#231f20"></path><rect x="256.8" y="232.54" width="64.99" height="16.89" fill="#fff"></rect><path d="M321.8,249.93h-65a.51.51,0,0,1-.5-.5V232.54a.5.5,0,0,1,.5-.5h65a.5.5,0,0,1,.5.5v16.89A.5.5,0,0,1,321.8,249.93Zm-64.5-1h64V233h-64Z" fill="#231f20"></path><rect x="304.69" y="232.54" width="52.97" height="16.89" fill="#231f20"></rect><path d="M357.67,249.93h-53a.5.5,0,0,1-.5-.5V232.54a.5.5,0,0,1,.5-.5h53a.5.5,0,0,1,.5.5v16.89A.51.51,0,0,1,357.67,249.93Zm-52.48-1h52V233h-52Z" fill="#231f20"></path><rect x="262.59" y="215.65" width="52.07" height="16.89" fill="#fff"></rect><path d="M314.66,233H262.59a.5.5,0,0,1-.5-.5V215.65a.5.5,0,0,1,.5-.5h52.07a.5.5,0,0,1,.5.5v16.89A.51.51,0,0,1,314.66,233Zm-51.57-1h51.07V216.15H263.09Z" fill="#231f20"></path><rect x="314.66" y="215.65" width="34.81" height="16.89" fill="#231f20"></rect><path d="M349.47,233H314.66a.5.5,0,0,1-.5-.5V215.65a.5.5,0,0,1,.5-.5h34.81a.5.5,0,0,1,.5.5v16.89A.5.5,0,0,1,349.47,233Zm-34.31-1H349V216.15H315.16Z" fill="#231f20"></path><circle cx="325.09" cy="224.1" r="3.69" fill="#fff"></circle><rect x="267.68" y="207.14" width="45.82" height="8.5" fill="#fff"></rect><path d="M313.5,216.15H267.68a.5.5,0,0,1-.5-.5v-8.51a.5.5,0,0,1,.5-.5H313.5a.5.5,0,0,1,.5.5v8.51A.5.5,0,0,1,313.5,216.15Zm-45.32-1H313v-7.51H268.18Z" fill="#231f20"></path><rect x="297.78" y="207.14" width="43.59" height="8.5" fill="#231f20"></rect><path d="M341.37,216.15H297.78a.5.5,0,0,1-.5-.5v-8.51a.5.5,0,0,1,.5-.5h43.59a.51.51,0,0,1,.5.5v8.51A.51.51,0,0,1,341.37,216.15Zm-43.09-1h42.59v-7.51H298.28Z" fill="#231f20"></path><circle cx="312.91" cy="240.98" r="3.69" fill="#fff"></circle><path d="M349.47,233H317.71a.51.51,0,0,1-.5-.5.5.5,0,0,1,.5-.5h31.76a.5.5,0,0,1,.5.5A.5.5,0,0,1,349.47,233Z" fill="#fff"></path><path d="M341.37,216.15H314.66a.5.5,0,0,1-.5-.5.5.5,0,0,1,.5-.5h26.71a.5.5,0,0,1,.5.5A.51.51,0,0,1,341.37,216.15Z" fill="#fff"></path></svg>